<svg width="42" height="44" viewBox="0 0 42 44" fill="none" xmlns="http://www.w3.org/2000/svg">
<path fill-rule="evenodd" clip-rule="evenodd" d="M23.362 9.55375L23.8973 10.2153L24.3515 10.9591L35.6916 36.922L36.0647 37.7712L36.2992 38.6046L36.4018 39.4095L36.379 40.1728L36.2367 40.8809L35.981 41.5195L35.6179 42.074L35.1535 42.5291L34.5941 42.869L33.9466 43.0777L33.2178 43.139L32.4155 43.0365L5.23222 37.1396L4.25708 36.8303L3.36106 36.3744L2.55647 35.7927L1.85509 35.1064L1.26816 34.3375L0.806313 33.5081L0.479549 32.6404L0.297166 31.7565L0.267822 30.8783L0.399492 30.0274L0.699492 29.2247L1.17452 28.4908L16.9965 8.56266L17.4727 8.10883L18.0299 7.79652L18.6503 7.61822L19.3167 7.56665L20.0121 7.63485L20.7202 7.81616L21.4249 8.10435L22.1104 8.49354L22.7612 8.97833L23.362 9.55375Z" fill="url(#paint0_linear_301_133)" fill-opacity="0.35"/>
<g filter="url(#filter0_b_301_133)">
<path fill-rule="evenodd" clip-rule="evenodd" d="M0.454975 29.1082L0.941051 28.352L16.1668 9.40791L16.9678 8.56697L17.7828 7.71146L18.612 6.84095L19.4558 5.95513L20.3147 5.05347L4.91973 24.3262L4.42719 25.1025L4.11613 25.9514L3.97961 26.8514L4.01004 27.7801L4.19914 28.715L4.53796 29.6327L5.01682 30.51L5.62538 31.3232L6.3526 32.049L7.18684 32.6643L8.11586 33.1464L9.12692 33.4735L37.8668 40.1267L38.6987 40.2351L39.4543 40.1703L40.1257 39.9495L39.0434 40.5712L37.9808 41.1815L36.9376 41.7808L35.9131 42.3692L34.9069 42.9472L34.2467 43.1689L33.5075 43.2409L32.6972 43.1465L4.88512 37.1055L3.91245 36.8044L3.02139 36.3531L2.2238 35.7724L1.53109 35.0839L0.95413 34.3096L0.503188 33.4718L0.187932 32.5929L0.0174067 31.6952L0 30.8007L0.143476 29.9313L0.454975 29.1082Z" fill="url(#paint1_linear_301_133)" fill-opacity="0.6"/>
</g>
<g filter="url(#filter1_b_301_133)">
<path fill-rule="evenodd" clip-rule="evenodd" d="M26.9148 6.10163L27.4698 6.80134L27.9407 7.58796L41.2638 33.6598L41.6506 34.5579L41.8937 35.4393L42.0001 36.2906L41.9764 37.0979L41.8289 37.8468L41.5638 38.5222L41.1873 39.1087L40.7058 39.59L40.1258 39.9495L39.4544 40.1702L38.6988 40.2351L37.8669 40.1267L9.12704 33.4735L8.11597 33.1463L7.18695 32.6642L6.35271 32.0489L5.62548 31.3231L5.01693 30.5099L4.53807 29.6327L4.19926 28.7149L4.01016 27.7801L3.97974 26.8513L4.11626 25.9514L4.42731 25.1024L4.91984 24.3262L20.3148 5.05341L20.8085 4.57342L21.3862 4.24312L22.0295 4.05454L22.7204 4L23.4415 4.07213L24.1756 4.26389L24.9063 4.56869L25.6171 4.98031L26.2919 5.49304L26.9148 6.10163Z" fill="url(#paint2_linear_301_133)" fill-opacity="0.2"/>
<path d="M25.9647 5.87238L26.5427 6.43714L27.0576 7.08635L27.5031 7.83042L40.811 33.8726L41.1777 34.7241L41.4021 35.5373L41.4992 36.3144L41.4778 37.0418L41.347 37.706L41.1164 38.2936L40.7957 38.7932L40.3932 39.1955L39.913 39.4931L39.3536 39.677L38.7099 39.7323L37.9558 39.634L9.26063 32.9912L8.30941 32.6834L7.45212 32.2385L6.67951 31.6687L6.00421 30.9947L5.43867 30.2389L4.99446 29.4252L4.68169 28.578L4.50852 27.7219L4.48097 26.8809L4.60305 26.0761L4.8783 25.3249L5.32747 24.617L20.6859 5.39001L21.1116 4.97606L21.5833 4.70638L22.1205 4.54891L22.7152 4.50197L23.3529 4.56576L24.0154 4.73882L24.6838 5.01764L25.3394 5.39733L25.9647 5.87238Z" stroke="url(#paint3_linear_301_133)"/>
</g>
<g filter="url(#filter2_d_301_133)">
<path fill-rule="evenodd" clip-rule="evenodd" d="M22.8826 7.61493L22.8354 7.6923L22.4621 7.9483L22.0889 8.20429L22.1252 8.10973L22.1726 8.03254L22.5276 7.82373L22.8826 7.61493ZM22.2309 7.97269L22.9404 7.55525L22.9408 7.55497L22.8826 7.61493L22.1731 8.03226L22.1726 8.03254L22.2309 7.97269ZM22.8354 7.6923L22.4621 7.9483L22.0889 8.20429L22.0635 8.31624L22.4188 8.10789L22.7742 7.89955L22.7992 7.78721L22.8354 7.6923ZM22.241 7.96677L22.2309 7.97269L22.2318 7.97214L22.3002 7.93015L22.9999 7.51841L23.01 7.51245L23.0091 7.513L22.9408 7.55497L22.241 7.96677ZM22.7742 7.89955L22.4188 8.10789L22.0635 8.31624L22.0493 8.44561L22.046 8.59242L22.2554 19.9132L22.2554 19.9136L22.2629 20.0551L22.2801 20.1878L22.307 20.3118L22.3436 20.4268L22.3898 20.533L22.4457 20.6302L22.5113 20.7184L22.5865 20.7977L22.6712 20.868L22.7655 20.9293L22.8694 20.9816L22.9827 21.0248L24.2771 21.4497L24.3886 21.4803L24.4906 21.4958L24.5831 21.4962L24.6662 21.4816L25.3302 21.1486L25.3305 21.1485L25.2379 21.1478L25.1358 21.132L25.0241 21.101L23.7273 20.6708L23.6138 20.627L23.5096 20.5742L23.415 20.5124L23.33 20.4416L23.2545 20.3617L23.1886 20.2729L23.1325 20.175L23.0859 20.0682L23.0489 19.9525L23.0217 19.8279L23.0042 19.6945L22.9963 19.5522L22.7573 8.17735L22.7573 8.17693L22.7602 8.02945L22.7742 7.89955ZM24.604 27.2396L24.4782 27.2097L22.7478 26.699L22.6192 26.6538L22.5017 26.5973L22.3954 26.5295L22.3003 26.4503L22.2165 26.36L22.1441 26.2583L22.0829 26.1454L22.0332 26.0214L21.9948 25.8862L21.9678 25.7399L21.9522 25.5826L21.948 25.4144L21.9636 23.5641L21.9705 23.4016L21.9885 23.257L22.0175 23.1304L22.0575 23.0216L22.1084 22.9308L22.1703 22.8577L22.2431 22.8025L22.9912 22.4558L22.9915 22.4557L22.9188 22.511L22.857 22.5842L22.8062 22.6754L22.7665 22.7846L22.7378 22.9118L22.7202 23.0571L22.7136 23.2204L22.7028 25.0803L22.7074 25.2494L22.7234 25.4076L22.7509 25.5547L22.7896 25.6907L22.8398 25.8155L22.9013 25.9291L22.9741 26.0314L23.0582 26.1225L23.1536 26.2022L23.2602 26.2707L23.378 26.3277L25.2405 26.8906L25.3666 26.921L25.4816 26.9336L25.5853 26.9285L24.9151 27.2237L24.8226 27.2466L24.7189 27.2519L24.604 27.2396ZM25.5853 26.9285L25.678 26.9057L24.9151 27.2237L25.5853 26.9285Z" fill="url(#paint4_linear_301_133)"/>
<path fill-rule="evenodd" clip-rule="evenodd" d="M23.1815 7.47949L23.1815 7.47949L23.1815 7.47949L23.1815 7.47949L23.0904 7.48727L23.0101 7.51241L23.0101 7.51241L23.0101 7.51242L22.9409 7.55493L22.8827 7.61485L22.8827 7.61487L22.8827 7.61488L22.8355 7.69226L22.7993 7.78712L22.7993 7.78713L22.7993 7.78713L22.7993 7.78713L22.7993 7.78713L23.0101 7.51242L23.0101 7.51242L23.0101 7.51243L22.7993 7.78713L22.7603 8.02941L22.7574 8.17687L22.9964 19.5515L22.9964 19.5522L23.0043 19.6944L23.0218 19.8278L23.0491 19.9524L23.086 20.0681L23.1325 20.1749L23.1888 20.2728L23.2546 20.3617L23.3301 20.4415L23.4151 20.5124L23.5097 20.5742L23.6138 20.627L23.7274 20.6707L25.0241 21.1009L25.1358 21.132L25.238 21.1478L25.3306 21.1484L25.4137 21.1339L25.4872 21.1043L25.4873 21.1043L25.4873 21.1043L25.5514 21.0596L25.6059 20.9998L25.606 20.9998L25.606 20.9998L25.606 20.9998L25.6061 20.9997L25.6513 20.9249L25.687 20.8351L25.6871 20.8351L25.7305 20.6105L25.7305 20.6104L25.7381 20.4756L25.9689 9.46779L25.9689 9.46763L25.9662 9.32082L25.9527 9.18235L25.9286 9.05232L25.8937 8.93067L25.8481 8.81737L25.7918 8.71236L25.7248 8.61563L25.647 8.52713L25.5584 8.44685L25.459 8.37477L25.3487 8.31087L25.2274 8.25516L23.5205 7.5599L23.3966 7.51584L23.3966 7.51584L23.3966 7.51583L23.2836 7.48903L23.1816 7.4795L23.1815 7.47949ZM25.6871 20.8351L25.7135 20.7302L25.7305 20.6104L25.6871 20.8351ZM25.8728 23.5463L25.8132 23.4359L25.7428 23.336L25.6617 23.2468L25.5698 23.1682L25.4671 23.1001L25.3535 23.0425H25.3535L25.229 22.9955L23.5188 22.4464L23.3917 22.4127L23.2753 22.3968L23.1698 22.3985L23.0753 22.4181L22.9916 22.4556L22.9189 22.5109H22.9188L22.9187 22.5112L22.8571 22.5842L22.8065 22.6751L22.8063 22.6754L22.8062 22.6757L22.7666 22.7846L22.738 22.9114L22.7379 22.9118L22.7379 22.9118L22.7379 22.912L22.7378 22.9124L22.7203 23.0571L22.7137 23.2203L22.7137 23.2204L22.7029 25.0802L22.7075 25.2494L22.7236 25.4075L22.751 25.5546L22.7898 25.6906L22.8399 25.8154L22.8399 25.8154L22.8399 25.8154L22.9014 25.929L22.9742 26.0314L23.0584 26.1224L23.1538 26.2022L23.1538 26.2022L23.1539 26.2023L23.2604 26.2706L23.3779 26.3276L23.3781 26.3277L25.2406 26.8905L25.3667 26.9209L25.4817 26.9335L25.5854 26.9284L25.6781 26.9056L25.7596 26.8651L25.83 26.8071L25.83 26.8071L25.8301 26.8071L25.8895 26.7314L25.9378 26.6381L25.9378 26.638L25.9378 26.6379L25.9379 26.6378L25.9751 26.5274L26.0015 26.3992L26.0015 26.3991L26.017 26.2534L26.0214 26.0903L26.0215 26.0902L26.011 24.2594L26.0048 24.0951L25.9878 23.9418L25.9601 23.7992L25.9218 23.6674L25.8728 23.5463ZM25.9601 23.7992L26.0048 24.0951L26.0215 26.0902L26.0047 24.0951L25.9601 23.7992L25.7428 23.336L25.7428 23.336L25.9601 23.7992ZM22.7743 7.8995L22.7993 7.78713L22.7603 8.02941L22.7743 7.8995Z" fill="url(#paint5_linear_301_133)" fill-opacity="0.8"/>
</g>
<defs>
<filter id="filter0_b_301_133" x="-30" y="-24.9465" width="100.126" height="98.1875" filterUnits="userSpaceOnUse" color-interpolation-filters="sRGB">
<feFlood flood-opacity="0" result="BackgroundImageFix"/>
<feGaussianBlur in="BackgroundImageFix" stdDeviation="15"/>
<feComposite in2="SourceAlpha" operator="in" result="effect1_backgroundBlur_301_133"/>
<feBlend mode="normal" in="SourceGraphic" in2="effect1_backgroundBlur_301_133" result="shape"/>
</filter>
<filter id="filter1_b_301_133" x="-9.02026" y="-9" width="64.0203" height="62.2351" filterUnits="userSpaceOnUse" color-interpolation-filters="sRGB">
<feFlood flood-opacity="0" result="BackgroundImageFix"/>
<feGaussianBlur in="BackgroundImageFix" stdDeviation="6.5"/>
<feComposite in2="SourceAlpha" operator="in" result="effect1_backgroundBlur_301_133"/>
<feBlend mode="normal" in="SourceGraphic" in2="effect1_backgroundBlur_301_133" result="shape"/>
</filter>
<filter id="filter2_d_301_133" x="7.948" y="0.479492" width="24.0735" height="39.7725" filterUnits="userSpaceOnUse" color-interpolation-filters="sRGB">
<feFlood flood-opacity="0" result="BackgroundImageFix"/>
<feColorMatrix in="SourceAlpha" type="matrix" values="0 0 0 0 0 0 0 0 0 0 0 0 0 0 0 0 0 0 127 0" result="hardAlpha"/>
<feOffset dx="-4" dy="3"/>
<feGaussianBlur stdDeviation="5"/>
<feComposite in2="hardAlpha" operator="out"/>
<feColorMatrix type="matrix" values="0 0 0 0 0.333333 0 0 0 0 0.260549 0 0 0 0 0.207843 0 0 0 0.3 0"/>
<feBlend mode="normal" in2="BackgroundImageFix" result="effect1_dropShadow_301_133"/>
<feBlend mode="normal" in="SourceGraphic" in2="effect1_dropShadow_301_133" result="shape"/>
</filter>
<linearGradient id="paint0_linear_301_133" x1="1.16551" y1="44.6353" x2="30.8588" y2="6.39252" gradientUnits="userSpaceOnUse">
<stop offset="0.268633" stop-color="#EFEAD5"/>
<stop offset="0.763637" stop-color="#E7E5B7" stop-opacity="0.39"/>
</linearGradient>
<linearGradient id="paint1_linear_301_133" x1="-9.85439" y1="10.2288" x2="26.143" y2="54.7601" gradientUnits="userSpaceOnUse">
<stop offset="0.325325" stop-color="#FFEDBE"/>
<stop offset="0.51875" stop-color="#FFD276"/>
<stop offset="0.976143" stop-color="#F56464"/>
</linearGradient>
<linearGradient id="paint2_linear_301_133" x1="5.188" y1="41.5989" x2="36.7417" y2="1.75887" gradientUnits="userSpaceOnUse">
<stop offset="0.268633" stop-color="#EFEAD5"/>
<stop offset="0.763637" stop-color="#B48571"/>
</linearGradient>
<linearGradient id="paint3_linear_301_133" x1="4.01501" y1="31.5689" x2="19.8069" y2="18.8551" gradientUnits="userSpaceOnUse">
<stop stop-color="white" stop-opacity="0.27"/>
<stop offset="0.688828" stop-color="white" stop-opacity="0"/>
</linearGradient>
<linearGradient id="paint4_linear_301_133" x1="20.2082" y1="13.1004" x2="26.97" y2="13.418" gradientUnits="userSpaceOnUse">
<stop offset="0.334199" stop-color="#CAB48A"/>
<stop offset="0.590808" stop-color="#C0A36B"/>
</linearGradient>
<linearGradient id="paint5_linear_301_133" x1="33.056" y1="26.751" x2="37.8971" y2="20.0321" gradientUnits="userSpaceOnUse">
<stop offset="0.306695" stop-color="white" stop-opacity="0.85"/>
<stop offset="1" stop-color="#E7D4B7" stop-opacity="0.64"/>
</linearGradient>
</defs>
</svg>
