<svg width="49" height="47" viewBox="0 0 49 47" fill="none" xmlns="http://www.w3.org/2000/svg">
<path fill-rule="evenodd" clip-rule="evenodd" d="M11.5977 5.3718L12.5292 5.52054L13.4883 5.79121L32.6088 12.7424L33.4456 13.0838L34.2488 13.5172L35.0125 14.0331L35.7304 14.6222L36.3963 15.2757L37.0036 15.9847L37.5458 16.7408L38.0159 17.5354L38.4069 18.3603L38.7114 19.2071L38.9215 20.0675L39.0293 20.9331L39.3699 39.8129L39.3699 39.8134L39.2552 40.7306L39.0293 41.579L38.6981 42.3512L38.2674 43.0393L37.7433 43.6352L37.1321 44.1303L36.44 44.516L35.6743 44.7831L34.8418 44.9228L33.9504 44.9257L33.008 44.783L11.8821 40.2782L10.8499 40.0396L9.7641 39.5743L8.72615 38.9003L7.79707 38.1994L6.94858 37.3993L6.19181 36.5134L5.53752 35.5556L4.99606 34.5401L4.5773 33.4812L4.29058 32.3932L4.14453 31.2903L4.14737 30.1867L5.82511 9.85795L5.95977 8.97302L6.2217 8.17456L6.59969 7.46705L7.08265 6.85454L7.65972 6.3408L8.32029 5.92934L9.05409 5.62351L9.8512 5.42652L10.7021 5.34155L11.5977 5.3718ZM39.3699 39.8129L39.0293 20.9331L39.3677 38.8345L39.3699 39.8129Z" fill="url(#paint0_linear_301_110)" fill-opacity="0.5"/>
<path fill-rule="evenodd" clip-rule="evenodd" d="M10.0374 3.63138L9.90274 4.51632L8.3107 26.4442L8.30787 27.5477L8.45388 28.6506L8.74063 29.7387L9.15939 30.7976L9.70085 31.8131L10.3551 32.7709L11.1119 33.6568L11.9604 34.4569L12.8895 35.1578L13.8877 35.7461L14.9435 36.2094L16.045 36.5356L38.6381 41.6528L39.5804 41.7956L40.4719 41.7926L41.3043 41.653L42.07 41.3859L41.3076 41.8378L40.6183 42.222L39.8898 42.6542L40.6179 42.2222L40.6183 42.222L41.3076 41.8378L42.07 41.3859L42.7621 41.0002L41.3083 41.8374L41.3079 41.8376L41.3076 41.8378L40.6183 42.222L39.8898 42.6542L38.5065 43.4508L37.1566 44.2281L36.4745 44.6087L35.723 44.876L34.9095 45.0214L34.0416 45.036L33.1273 44.9111L11.3265 40.3041L10.269 40.0068L9.25808 39.5775L8.30468 39.0275L7.41974 38.3688L6.61399 37.6137L5.89784 36.775L5.2814 35.8657L4.77439 34.8993L4.38605 33.8892L4.12518 32.8488L4 31.7916L4.01818 30.7311L5.86697 9.53646L6.01008 8.67579L6.27524 7.89601L7.6213 5.97894L8.0998 5.37219L9.09493 4.11733L10.1147 2.83145L11.1593 1.51416L10.6773 2.12542L10.2993 2.83293L10.0374 3.63138Z" fill="url(#paint1_linear_301_110)"/>
<g filter="url(#filter0_b_301_110)">
<path fill-rule="evenodd" clip-rule="evenodd" d="M15.6753 0.0302432L16.6068 0.178984L17.5659 0.449655L37.3157 7.22473L38.1525 7.56613L38.9558 7.99955L39.7194 8.51544L40.4374 9.10459L41.1032 9.75804L41.7105 10.4671L42.2527 11.2231L42.7228 12.0178L43.1138 12.8426L43.4183 13.6894L43.6284 14.5498L43.7362 15.4155L45 36.6828L45 36.6834L44.8853 37.6006L44.6594 38.4489L44.3282 39.2211L43.8975 39.9093L43.3734 40.5051L42.7622 41.0002L42.0701 41.3859L41.3044 41.6531L40.4719 41.7927L39.5805 41.7957L38.6381 41.6529L16.0454 36.5357L15.0132 36.2972L13.9274 35.8318L12.8895 35.1578L11.9604 34.457L11.1119 33.6569L10.3551 32.771L9.70085 31.8132L9.15939 30.7977L8.74063 29.7387L8.45391 28.6508L8.30786 27.5478L8.3107 26.4443L9.90273 4.5164L10.0374 3.63146L10.2993 2.83301L10.6773 2.1255L11.1603 1.51299L11.7373 0.999244L12.3979 0.587786L13.1317 0.281958L13.9288 0.0849669L14.7797 0L15.6753 0.0302432ZM45 36.6828L43.7362 15.4155L44.9978 35.7045L45 36.6828Z" fill="url(#paint2_linear_301_110)" fill-opacity="0.3"/>
<path d="M44.4981 36.6671L44.3934 37.5048L44.1856 38.2852L43.8839 38.9885L43.4953 39.6096L43.0259 40.1432L42.481 40.5845L41.8646 40.9281L41.1798 41.167L40.4294 41.2929L39.6173 41.2955L38.7309 41.1613L16.158 36.0486L16.1559 36.0481L15.1693 35.82L14.1638 35.3891L13.1765 34.7481L12.2834 34.0744L11.4746 33.3116L10.7528 32.4667L10.1292 31.5538L9.61393 30.5874L9.21654 29.5825L8.94544 28.5539L8.80795 27.5155L8.81065 26.4631L10.4 4.5722L10.5254 3.7478L10.7608 3.03023L11.0974 2.40024L11.5256 1.85715L12.0379 1.40108L12.6278 1.03367L13.2888 0.758184L14.0141 0.578941L14.7962 0.500841L15.6273 0.528906L16.4991 0.668123L17.4168 0.927096L37.14 7.69306L37.9387 8.01892L38.6965 8.42778L39.4203 8.91673L40.103 9.47701L40.7376 10.0998L41.3168 10.776L41.8336 11.4966L42.2809 12.2526L42.6516 13.0347L42.9388 13.8337L43.1359 14.6404L43.2381 15.4612L44.4981 36.6671Z" stroke="url(#paint3_linear_301_110)"/>
</g>
<g filter="url(#filter1_d_301_110)">
<path fill-rule="evenodd" clip-rule="evenodd" d="M17.771 17.4166L18.6586 16.4663L17.6065 17.593L17.771 17.4166ZM39.1853 18.1952L27.2401 27.0453L27.239 27.0461L27.0287 27.1761L26.8016 27.2691L26.5608 27.3257L26.3099 27.3466L26.052 27.3323L25.7908 27.2836L25.5296 27.2012L25.2719 27.0859L25.0213 26.9385L24.649 27.4183L24.2767 27.8981L24.5316 28.0111L24.7901 28.0914L25.0488 28.1384L25.3044 28.1514L25.5533 28.1297L25.7922 28.0726L26.0179 27.9795L26.2271 27.8498L38.1345 19.0218L38.1351 19.0213L39.1853 18.1952ZM18.4934 16.6435L17.6065 17.593L17.475 17.7927L17.3768 18.0123L17.3122 18.2486L17.2817 18.4983L17.2856 18.7578L17.3241 19.0238L17.3976 19.2927L17.5063 19.5611L17.6502 19.8253L17.8297 20.0817L23.3637 27.1374L23.569 27.3721L23.7919 27.5778L24.029 27.7534L24.2767 27.8981L24.649 27.4183L25.0213 26.9385L24.7813 26.76L24.5553 26.5511L24.3471 26.3129L18.7296 19.1577L18.5474 18.8977L18.4009 18.6302L18.29 18.3586L18.2147 18.0866L18.1746 17.8178L18.1696 17.5557L18.1992 17.3038L18.2633 17.0656L18.3615 16.8443L18.4934 16.6435ZM18.4934 16.6435L18.6586 16.4663L17.6065 17.593L18.4934 16.6435Z" fill="url(#paint4_linear_301_110)"/>
<path fill-rule="evenodd" clip-rule="evenodd" d="M39.0877 15.7218L39.2464 15.949L39.3783 16.1819L39.4832 16.4175L39.561 16.6532L39.6116 16.886L39.6347 17.1133L39.6303 17.332L39.598 17.5393L39.5376 17.7323L39.4489 17.9079L39.3315 18.0632L39.1852 18.1951L27.2397 27.0454L27.2389 27.046L27.0286 27.176L26.8015 27.269L26.5607 27.3256L26.3097 27.3464L26.0519 27.3322L25.7907 27.2834L25.5295 27.2011L25.2718 27.0858L25.0212 26.9384L24.7811 26.7598L25.8857 22.3285L36.6628 14.9154L36.836 14.8191L37.0239 14.7561L37.2237 14.7253L37.4324 14.7256L37.6472 14.7559L37.8654 14.815L38.084 14.9021L38.3003 15.016L38.5115 15.1558L38.715 15.3207L38.908 15.5096L39.0877 15.7218ZM18.1992 17.3036L18.2632 17.0654L18.3613 16.8443L19.0801 16.1994L20.0935 16.0957L20.3594 16.1547L20.6235 16.2453L20.8824 16.3666L21.1329 16.5176L21.3717 16.6973L21.5954 16.9048L21.8007 17.1394L25.8857 22.3285L24.7811 26.7598L24.5552 26.551L24.347 26.3128L18.7295 19.1576L18.5472 18.8976L18.4007 18.63L18.2899 18.3585L18.2145 18.0865L18.1745 17.8177L18.1694 17.5556L18.1992 17.3036ZM20.0935 16.0957L19.8292 16.0696L19.5699 16.0774L19.319 16.1203L19.0801 16.1994L20.0935 16.0957ZM19.0801 16.1994L18.8566 16.3159L18.6585 16.4662L18.4932 16.6434L18.3613 16.8443L19.0801 16.1994Z" fill="url(#paint5_linear_301_110)"/>
</g>
<defs>
<filter id="filter0_b_301_110" x="-4.69214" y="-13" width="62.6921" height="67.7957" filterUnits="userSpaceOnUse" color-interpolation-filters="sRGB">
<feFlood flood-opacity="0" result="BackgroundImageFix"/>
<feGaussianBlur in="BackgroundImageFix" stdDeviation="6.5"/>
<feComposite in2="SourceAlpha" operator="in" result="effect1_backgroundBlur_301_110"/>
<feBlend mode="normal" in="SourceGraphic" in2="effect1_backgroundBlur_301_110" result="shape"/>
</filter>
<filter id="filter1_d_301_110" x="0.576421" y="10.085" width="48.3391" height="39.4121" filterUnits="userSpaceOnUse" color-interpolation-filters="sRGB">
<feFlood flood-opacity="0" result="BackgroundImageFix"/>
<feColorMatrix in="SourceAlpha" type="matrix" values="0 0 0 0 0 0 0 0 0 0 0 0 0 0 0 0 0 0 127 0" result="hardAlpha"/>
<feOffset dx="-3.71229" dy="8.35266"/>
<feGaussianBlur stdDeviation="6.49651"/>
<feComposite in2="hardAlpha" operator="out"/>
<feColorMatrix type="matrix" values="0 0 0 0 0.103333 0 0 0 0 0.4104 0 0 0 0 0.43 0 0 0 0.25 0"/>
<feBlend mode="normal" in2="BackgroundImageFix" result="effect1_dropShadow_301_110"/>
<feBlend mode="normal" in="SourceGraphic" in2="effect1_dropShadow_301_110" result="shape"/>
</filter>
<linearGradient id="paint0_linear_301_110" x1="5.16623" y1="47.411" x2="37.3765" y2="8.26666" gradientUnits="userSpaceOnUse">
<stop offset="0.320833" stop-color="#C0EEF1"/>
<stop offset="0.58125" stop-color="#8FC3D0"/>
<stop offset="0.89375" stop-color="#2A9FAF" stop-opacity="0.79"/>
</linearGradient>
<linearGradient id="paint1_linear_301_110" x1="-5.51951" y1="7.41241" x2="39.5261" y2="52.3984" gradientUnits="userSpaceOnUse">
<stop stop-color="#CBF3FF"/>
<stop offset="0.35896" stop-color="#39B8C9"/>
<stop offset="0.683604" stop-color="#089EB3"/>
<stop offset="1" stop-color="#68A4B7"/>
</linearGradient>
<linearGradient id="paint2_linear_301_110" x1="9.47392" y1="43.3687" x2="41.6842" y2="4.2244" gradientUnits="userSpaceOnUse">
<stop offset="0.320833" stop-color="#A2F4FF"/>
<stop offset="0.685417" stop-color="#68D3E9" stop-opacity="0.9405"/>
<stop offset="0.89375" stop-color="#009BB0" stop-opacity="0.79"/>
</linearGradient>
<linearGradient id="paint3_linear_301_110" x1="8.2418" y1="37.7681" x2="43.8857" y2="7.86557" gradientUnits="userSpaceOnUse">
<stop offset="0.180663" stop-color="white" stop-opacity="0.35"/>
<stop offset="0.533255" stop-color="white" stop-opacity="0"/>
</linearGradient>
<linearGradient id="paint4_linear_301_110" x1="16.2601" y1="7.86615" x2="16.5169" y2="30.8149" gradientUnits="userSpaceOnUse">
<stop offset="0.301696" stop-color="#C5E7EE"/>
<stop offset="0.993284" stop-color="#7FB8C0" stop-opacity="0.63"/>
</linearGradient>
<linearGradient id="paint5_linear_301_110" x1="27.1744" y1="31.2194" x2="38.7352" y2="10.6389" gradientUnits="userSpaceOnUse">
<stop stop-color="white"/>
<stop offset="0.644664" stop-color="white" stop-opacity="0.57"/>
</linearGradient>
</defs>
</svg>
