<svg width="72" height="48" viewBox="0 0 72 48" fill="none" xmlns="http://www.w3.org/2000/svg">
<path d="M43.6801 20.5081L44.6035 22.8338L45.3152 25.2255L45.798 27.6655L46.0333 30.1368L46.0024 32.5432L45.7088 34.7915L45.1643 36.8678L44.3803 38.7566L43.3677 40.4404L42.137 41.9001L40.6978 43.1156L39.0586 44.0645L37.2272 44.7215L35.2118 45.0574L33.0225 45.0394L30.6732 44.632L28.2635 43.8277L25.9035 42.658L23.628 41.1478L21.4729 39.3271L19.4743 37.2307L17.6676 34.8972L16.0865 32.3689L14.7627 29.6906L13.7251 26.9092L12.9994 24.0725L12.6072 21.2288L12.566 18.4252L12.8767 15.7929L13.5057 13.4426L14.4158 11.386L15.5713 9.63046L16.9388 8.17954L18.4884 7.03457L20.1942 6.19628L22.0331 5.66622L23.9843 5.4474L26.028 5.54423L28.1453 5.96221L30.3181 6.70767L32.4593 7.75176L34.487 9.04138L36.3916 10.549L38.1626 12.2488L39.789 14.1166L41.2591 16.1298L42.5605 18.2671L43.6801 20.5081Z" fill="#5FA3C9" fill-opacity="0.62" stroke="url(#paint0_linear_301_183)" stroke-width="1.13106"/>
<g filter="url(#filter0_b_301_183)">
<path fill-rule="evenodd" clip-rule="evenodd" d="M13.0303 13.417L12.3532 15.9006L12 18.6595L12.0024 21.5793L12.3589 24.5269L13.0512 27.4555L14.0572 30.3179L15.352 33.0673L16.9079 35.6578L18.6948 38.0457L20.6813 40.1892L22.8346 42.0498L25.1214 43.5919L27.5083 44.784L29.9623 45.5982L32.3745 46.0001L34.6437 45.9942L36.751 45.6133L38.3023 45.0517L39.8821 44.4798L41.4912 43.8973L43.1305 43.3038L41.0159 43.6729L38.7307 43.6532L36.2932 43.2106L33.8054 42.3411L31.3778 41.0812L29.0448 39.4599L26.8409 37.5103L24.8007 35.2694L22.9584 32.778L21.347 30.0797L19.9976 27.2209L18.9391 24.2497L18.1977 21.2155L17.7963 18.1679L17.7541 15.1561L18.074 12.3177L18.725 9.77027L19.6722 7.52927L20.8808 5.60649L22.3171 4.01071L23.9489 2.74829L22.4965 3.71222L21.0707 4.65853L19.6708 5.5877L18.296 6.50018L16.6621 7.75754L15.2183 9.33463L13.9967 11.2242L13.0303 13.417Z" fill="url(#paint1_linear_301_183)" fill-opacity="0.6"/>
</g>
<g filter="url(#filter1_b_301_183)">
<path fill-rule="evenodd" clip-rule="evenodd" d="M50.9003 19.6096L49.9585 17.1259L48.8172 14.7339L47.4908 12.453L45.9921 10.3039L44.3327 8.30845L42.5236 6.49022L40.5745 4.8747L38.4947 3.48965L36.293 2.36545L34.0503 1.55977L31.8538 1.10573L29.7229 1L27.6788 1.24004L25.7454 1.82358L23.9486 2.74816L22.3169 4.01057L20.8807 5.60635L19.672 7.52913L18.7249 9.77014L18.0738 12.3175L17.7539 15.1559L17.7961 18.1678L18.1975 21.2154L18.9389 24.2496L19.9974 27.2208L21.3468 30.0795L22.9583 32.7778L24.8005 35.2693L26.8407 37.5101L29.0446 39.4598L31.3776 41.0811L33.8051 42.341L36.293 43.2104L38.7305 43.6531L41.0158 43.6727L43.1303 43.3037L45.0581 42.5796L46.7853 41.5326L48.2998 40.1933L49.5906 38.5901L50.6484 36.7484L51.4635 34.6921L52.027 32.4417L52.3296 30.0154L52.3613 27.4284L52.1205 24.7786L51.6268 22.1665L50.9003 19.6096Z" fill="url(#paint2_linear_301_183)" fill-opacity="0.2"/>
<path d="M49.438 17.3483L50.3629 19.7875L51.0759 22.2966L51.5597 24.8569L51.7955 27.4506L51.7645 29.9768L51.4701 32.3377L50.924 34.5185L50.1377 36.5021L49.1223 38.27L47.8893 39.8014L46.4487 41.0753L44.81 42.0687L42.981 42.7557L40.9692 43.1068L38.7838 43.088L36.4377 42.6619L34.0298 41.8204L31.6705 40.5959L29.3945 39.0143L27.2383 37.1068L25.2381 34.9098L23.4295 32.464L21.8465 29.8132L20.5207 27.0046L19.4814 24.0872L18.7542 21.111L18.3612 18.1267L18.3199 15.1838L18.6314 12.4197L19.2623 9.95125L20.1752 7.7914L21.3336 5.94851L22.7032 4.42673L24.2536 3.22724L25.9582 2.35006L27.7944 1.79588L29.742 1.56717L31.7822 1.6684L33.8967 2.1055L36.0679 2.8855L38.2084 3.97846L40.2363 5.32899L42.1418 6.90833L43.914 8.68944L45.5419 10.6471L47.0136 12.7574L48.3168 14.9982L49.438 17.3483Z" stroke="url(#paint3_linear_301_183)" stroke-width="1.13106"/>
</g>
<g filter="url(#filter2_f_301_183)">
<path d="M34.9886 10.2228C35.7644 10.4129 36.4061 11.2159 36.4454 12.0287L36.501 13.4577C39.2771 14.7327 40.508 17.4761 40.639 19.246C40.7044 20.0621 40.1414 20.5963 39.3819 20.4357C39.3459 20.4325 39.3099 20.4259 39.2738 20.4161C38.5831 20.2555 37.9644 19.459 37.9022 18.6921C37.8531 18.1676 37.5028 16.4272 35.2701 15.9094C33.1193 15.4112 32.9229 16.873 32.936 17.5252C32.9884 18.0595 33.3583 19.5409 35.5255 20.0391C39.3099 20.9143 40.8976 24.3721 41.0416 26.4894L41.0449 26.5615L41.0416 26.6435C40.9893 27.7021 40.6095 28.6166 39.958 29.2557C39.3066 29.8948 38.4227 30.2259 37.4308 30.1964L37.5224 31.8778C37.565 32.6873 36.979 33.2019 36.2195 33.0249C35.46 32.8479 34.8085 32.0482 34.766 31.2387L34.6743 29.5573C31.8819 28.2954 30.7688 25.6045 30.5822 24.1886C30.4676 23.3692 30.9849 22.7858 31.7411 22.8874C31.7804 22.8939 31.8197 22.9005 31.8589 22.9103C32.5824 23.0775 33.2012 23.7789 33.3092 24.5655C33.3845 25.0243 33.8035 26.6107 35.9052 27.0958C37.9775 27.5743 38.2492 26.2043 38.2885 25.8208C38.2099 25.1948 37.8171 23.4708 35.6826 22.9759C31.8982 22.1007 30.3203 18.8527 30.1861 16.8795C30.1042 15.0736 31.0307 12.799 33.761 12.8121L33.6955 11.3568C33.6562 10.5571 34.2389 10.0491 34.9886 10.2228Z" fill="url(#paint4_linear_301_183)"/>
</g>
<path fill-rule="evenodd" clip-rule="evenodd" d="M33.5175 11.505L34.566 10.7407C34.5464 10.3062 34.7097 9.95999 34.9808 9.76074L33.9323 10.5251C33.6612 10.7243 33.4979 11.0706 33.5175 11.505ZM33.5829 12.9553L34.6314 12.1942L34.5661 10.7407L33.5175 11.505L33.5829 12.9553Z" fill="url(#paint5_linear_301_183)"/>
<path fill-rule="evenodd" clip-rule="evenodd" d="M39.1944 20.5528L40.2429 19.7885L40.1351 19.7689C39.4491 19.6088 38.8285 18.8151 38.7665 18.0508C38.7175 17.5249 38.368 15.7904 36.1403 15.2776C35.278 15.0784 34.7292 15.196 34.383 15.4475L33.3345 16.2118C33.6807 15.9603 34.2295 15.8427 35.0918 16.042C37.3195 16.558 37.669 18.2925 37.718 18.8151C37.78 19.5794 38.3974 20.3732 39.0866 20.5332C39.1225 20.543 39.1584 20.5496 39.1944 20.5528ZM40.0405 20.3993L41.0868 19.6366C40.8682 19.7955 40.5718 19.8569 40.243 19.7885L39.1945 20.5528C39.5244 20.6214 39.8216 20.5594 40.0405 20.3993Z" fill="url(#paint6_linear_301_183)" fill-opacity="0.6"/>
<path fill-rule="evenodd" clip-rule="evenodd" d="M31.0645 16.2481L31.0645 16.248C31.009 15.0402 31.407 13.6203 32.4998 12.823L31.4532 13.5859C30.36 14.3822 29.9612 15.8013 30.0159 17.0092L30.0157 17.0093C30.1496 18.9756 31.724 22.2126 35.5 23.0848C37.6297 23.578 38.0216 25.2961 38.1 25.92L39.1485 25.1556C39.0702 24.5318 38.6782 22.8136 36.5485 22.3204C32.7778 21.4488 31.2031 18.2147 31.0645 16.2481ZM38.5738 26.2433L37.5258 27.0072C37.9827 26.674 38.0806 26.1387 38.1002 25.9232L39.1487 25.1589C39.1291 25.3744 39.0311 25.9069 38.5738 26.2433Z" fill="url(#paint7_linear_301_183)" fill-opacity="0.6"/>
<path d="M40.4588 28.8789L39.4102 29.6432C38.8092 30.0809 38.0612 30.3031 37.2446 30.2802L38.2931 29.5159C39.113 29.5387 39.8577 29.3199 40.4588 28.8789Z" fill="#3971B4"/>
<path fill-rule="evenodd" clip-rule="evenodd" d="M34.5856 31.3223L35.6341 30.558L35.5427 28.8823L34.4941 29.6467L34.5856 31.3223ZM36.9213 32.9522L37.9698 32.1879C37.7379 32.3545 37.4308 32.4166 37.0846 32.3382C36.3268 32.1618 35.6768 31.3648 35.6343 30.558L34.5858 31.3223C34.6283 32.1291 35.2783 32.9261 36.0361 33.1025C36.3823 33.1842 36.6893 33.1188 36.9213 32.9522Z" fill="url(#paint8_linear_301_183)"/>
<path d="M35.5428 28.8822L34.4943 29.6465C31.708 28.389 30.5975 25.7073 30.4113 24.2962C30.3427 23.803 30.506 23.3947 30.8098 23.1725L31.8583 22.4082C31.5512 22.6303 31.3912 23.0386 31.4598 23.5318C31.646 24.9429 32.7565 27.6246 35.5428 28.8822Z" fill="url(#paint9_linear_301_183)"/>
<g filter="url(#filter3_b_301_183)">
<path d="M35.8595 9.6106C36.6336 9.80005 37.2738 10.6003 37.313 11.4104L37.3685 12.8345C40.1384 14.1051 41.3666 16.8391 41.4972 18.603C41.5626 19.4163 41.0007 19.9487 40.2429 19.7887C40.207 19.7854 40.1711 19.7789 40.1352 19.7691C39.4459 19.609 38.8286 18.8153 38.7665 18.0509C38.7175 17.5283 38.368 15.7939 36.1404 15.2778C33.9943 14.7813 33.7984 16.2381 33.8114 16.8881C33.8637 17.4205 34.2328 18.8969 36.3951 19.3934C40.1711 20.2655 41.7553 23.7116 41.899 25.8217L41.9023 25.8935L41.899 25.9752C41.8467 27.0302 41.4678 27.9416 40.8178 28.5785C40.1678 29.2154 39.2859 29.5454 38.2962 29.516L38.3876 31.1916C38.4301 31.9984 37.8454 32.5112 37.0876 32.3348C36.3298 32.1585 35.6798 31.3615 35.6373 30.5547L35.5459 28.879C32.7597 27.6215 31.6491 24.9397 31.4629 23.5287C31.3486 22.7121 31.8647 22.1307 32.6192 22.2319C32.6584 22.2384 32.6976 22.245 32.7368 22.2548C33.4587 22.4214 34.076 23.1204 34.1838 23.9043C34.2589 24.3616 34.677 25.9425 36.774 26.426C38.8417 26.9028 39.1128 25.5375 39.152 25.1553C39.0736 24.5315 38.6816 22.8133 36.5519 22.3201C32.776 21.448 31.2016 18.211 31.0677 16.2446C30.986 14.4448 31.9104 12.178 34.6346 12.191L34.5692 10.7408C34.53 9.94377 35.1114 9.43748 35.8595 9.6106Z" fill="url(#paint10_linear_301_183)" fill-opacity="0.7"/>
</g>
<defs>
<filter id="filter0_b_301_183" x="-21.9318" y="-31.1835" width="98.9939" height="111.115" filterUnits="userSpaceOnUse" color-interpolation-filters="sRGB">
<feFlood flood-opacity="0" result="BackgroundImageFix"/>
<feGaussianBlur in="BackgroundImageFix" stdDeviation="16.9659"/>
<feComposite in2="SourceAlpha" operator="in" result="effect1_backgroundBlur_301_183"/>
<feBlend mode="normal" in="SourceGraphic" in2="effect1_backgroundBlur_301_183" result="shape"/>
</filter>
<filter id="filter1_b_301_183" x="3.05014" y="-13.7038" width="64.015" height="72.0801" filterUnits="userSpaceOnUse" color-interpolation-filters="sRGB">
<feFlood flood-opacity="0" result="BackgroundImageFix"/>
<feGaussianBlur in="BackgroundImageFix" stdDeviation="7.35188"/>
<feComposite in2="SourceAlpha" operator="in" result="effect1_backgroundBlur_301_183"/>
<feBlend mode="normal" in="SourceGraphic" in2="effect1_backgroundBlur_301_183" result="shape"/>
</filter>
<filter id="filter2_f_301_183" x="0.181152" y="-19.8113" width="70.8638" height="82.8711" filterUnits="userSpaceOnUse" color-interpolation-filters="sRGB">
<feFlood flood-opacity="0" result="BackgroundImageFix"/>
<feBlend mode="normal" in="SourceGraphic" in2="BackgroundImageFix" result="shape"/>
<feGaussianBlur stdDeviation="15" result="effect1_foregroundBlur_301_183"/>
</filter>
<filter id="filter3_b_301_183" x="15.4692" y="-6.01689" width="42.0267" height="53.9801" filterUnits="userSpaceOnUse" color-interpolation-filters="sRGB">
<feFlood flood-opacity="0" result="BackgroundImageFix"/>
<feGaussianBlur in="BackgroundImageFix" stdDeviation="7.79677"/>
<feComposite in2="SourceAlpha" operator="in" result="effect1_backgroundBlur_301_183"/>
<feBlend mode="normal" in="SourceGraphic" in2="effect1_backgroundBlur_301_183" result="shape"/>
</filter>
<linearGradient id="paint0_linear_301_183" x1="12.0321" y1="35.879" x2="28.6587" y2="25.0455" gradientUnits="userSpaceOnUse">
<stop stop-color="white" stop-opacity="0.27"/>
<stop offset="0.688828" stop-color="white" stop-opacity="0"/>
</linearGradient>
<linearGradient id="paint1_linear_301_183" x1="21.054" y1="9.24572" x2="36.5766" y2="45.6415" gradientUnits="userSpaceOnUse">
<stop offset="0.325325" stop-color="#C0DDFF"/>
<stop offset="0.59538" stop-color="#1277C1"/>
<stop offset="0.814274" stop-color="#053174"/>
<stop offset="0.896974" stop-color="#053174"/>
<stop offset="1" stop-color="#0D469B"/>
</linearGradient>
<linearGradient id="paint2_linear_301_183" x1="8.92792" y1="19.7547" x2="62.7135" y2="25.2777" gradientUnits="userSpaceOnUse">
<stop offset="0.89375" stop-color="#5A8DEF"/>
</linearGradient>
<linearGradient id="paint3_linear_301_183" x1="14.2633" y1="31.8805" x2="41.1871" y2="36.6292" gradientUnits="userSpaceOnUse">
<stop offset="0.0596223" stop-color="white" stop-opacity="0.45"/>
<stop offset="0.701218" stop-color="white" stop-opacity="0"/>
</linearGradient>
<linearGradient id="paint4_linear_301_183" x1="32.3419" y1="11.4952" x2="34.5311" y2="41.1682" gradientUnits="userSpaceOnUse">
<stop offset="0.46041" stop-color="#1C5485"/>
<stop offset="1" stop-color="#94B4F2"/>
</linearGradient>
<linearGradient id="paint5_linear_301_183" x1="34.2483" y1="9.76074" x2="34.2483" y2="12.9553" gradientUnits="userSpaceOnUse">
<stop stop-color="#94C9FA"/>
<stop offset="1" stop-color="#599CD8"/>
</linearGradient>
<linearGradient id="paint6_linear_301_183" x1="35.5891" y1="15.9887" x2="36.6886" y2="21.1275" gradientUnits="userSpaceOnUse">
<stop stop-color="#1277C1"/>
<stop offset="0.544343" stop-color="#1277C1"/>
<stop offset="1" stop-color="#0D469B"/>
</linearGradient>
<linearGradient id="paint7_linear_301_183" x1="32.6686" y1="14.9538" x2="38.1466" y2="26.4504" gradientUnits="userSpaceOnUse">
<stop offset="0.0486117" stop-color="#8FC1ED"/>
<stop offset="0.372917" stop-color="#1277C1"/>
<stop offset="0.716667" stop-color="#1277C1"/>
<stop offset="1" stop-color="#0D469B"/>
</linearGradient>
<linearGradient id="paint8_linear_301_183" x1="36.2319" y1="28.8823" x2="36.2319" y2="33.1376" gradientUnits="userSpaceOnUse">
<stop stop-color="#69A2D8"/>
<stop offset="1" stop-color="#2860A8"/>
</linearGradient>
<linearGradient id="paint9_linear_301_183" x1="32.9693" y1="22.4082" x2="33.0399" y2="31.0584" gradientUnits="userSpaceOnUse">
<stop stop-color="#8EC0ED"/>
<stop offset="1" stop-color="#296FB3"/>
</linearGradient>
<linearGradient id="paint10_linear_301_183" x1="33.2187" y1="10.8786" x2="35.3978" y2="40.4507" gradientUnits="userSpaceOnUse">
<stop offset="0.46041" stop-color="#CAE5FF"/>
<stop offset="1" stop-color="#94B4F2"/>
</linearGradient>
</defs>
</svg>
