<svg width="29" height="42" viewBox="0 0 29 42" fill="none" xmlns="http://www.w3.org/2000/svg">
<g filter="url(#filter0_b_301_124)">
<path fill-rule="evenodd" clip-rule="evenodd" d="M12.9935 41.6283L12.9938 41.6279L13.6989 40.7199L14.7441 39.33L14.7443 39.3298L16.0201 37.5654L17.4227 35.5293L18.8567 33.3164L20.2369 31.0101L21.4886 28.6815L22.5459 26.3901L23.3496 24.1838L23.8437 22.1036L23.9727 20.1829L23.8062 18.3573L23.4623 16.5506L22.955 14.7757L22.0383 12.8422L21.11 11.2422L20.061 9.72892L18.8996 8.31777L17.6334 7.02537L16.2697 5.86959L14.815 4.86978L13.2758 4.04704L11.7087 3.44279L10.175 3.08161L8.68804 2.96143L7.26283 3.08073L5.91582 3.43829L4.6653 4.03261L3.53071 4.86199L2.53309 5.92374L1.69462 7.21428L1.03883 8.7274L0.589278 10.4564L0.370171 12.3913L0.493552 13.4494L0.987105 15.9172L1.85082 19.1253L3.0847 22.5801L4.56536 26.035L6.15101 29.5867L7.78153 32.8493L9.32236 35.7989L10.6798 38.3078L11.7617 40.2512L12.4771 41.5065L12.7357 41.9521L12.9935 41.6283Z" fill="url(#paint0_linear_301_124)"/>
</g>
<g filter="url(#filter1_b_301_124)">
<path fill-rule="evenodd" clip-rule="evenodd" d="M1.79049 7.04549L2.63807 5.77436L3.64105 4.72184L4.77746 3.89232L5.75401 3.20582L4.6177 4.03555L4.61823 4.03517L5.75401 3.20582L6.74762 2.50735L6.74809 2.50701L7.76019 1.79553L8.79079 1.07104L7.69127 1.97407L6.70417 2.96117L5.84045 4.31844L5.22351 5.7991L4.96347 6.70925C4.80803 7.25328 4.69523 7.80859 4.6261 8.37014C4.53934 9.07487 4.52172 9.78641 4.57349 10.4946L4.59125 10.7376C4.64072 11.4141 4.74158 12.0859 4.89298 12.7472L5.31083 14.5722L6.34268 17.7518L7.66805 21.1565L9.19147 24.6492L10.8165 28.0938L12.4471 31.3564L13.9879 34.306L15.3453 36.8149L16.4518 38.7437L17.1922 39.9776L17.4389 40.4711L16.2059 40.8557L15.0338 41.2444L13.8841 41.6258L12.7561 41.9999L12.5064 41.5716L11.8157 40.3647L10.772 38.4962L9.46346 36.0837L7.97968 33.2469L6.41154 30.1083L4.85128 26.7933L3.3921 23.43L2.12732 20.1487L1.1495 17.0804L0.768732 15.3533C0.622316 14.6892 0.527988 14.0147 0.486609 13.3359L0.477306 13.1833C0.433451 12.4638 0.457641 11.7419 0.549553 11.027C0.618804 10.4884 0.726296 9.95538 0.871214 9.43202L0.878361 9.40621C1.04 8.82248 1.24625 8.25203 1.4953 7.6999L1.79049 7.04549Z" fill="url(#paint1_linear_301_124)" fill-opacity="0.6"/>
</g>
<g filter="url(#filter2_b_301_124)">
<path fill-rule="evenodd" clip-rule="evenodd" d="M17.64 40.1355L17.6403 40.1351L18.3453 39.2272L19.3905 37.8373L19.3907 37.837L20.6665 36.0727L22.0691 34.0366L23.5031 31.8237L24.8833 29.5174L26.1351 27.1888L27.1923 24.8973L27.996 22.6911L28.4901 20.6109L28.6191 18.6902L28.4526 16.8645L28.1088 15.0579L27.6014 13.283L26.943 11.5528L26.1447 9.88081L25.2164 8.28082L24.1674 6.76749L23.006 5.35634L21.7398 4.06395L20.3761 2.90816L18.9214 1.90835L17.3822 1.08562L15.8151 0.481367L14.2814 0.120182L12.7944 0L11.3692 0.119306L10.0222 0.476862L8.77169 1.07119L7.6371 1.90056L6.63949 2.96232L5.80101 4.25285L5.14522 5.76598L4.69567 7.49501L4.47656 9.42992L4.64655 11.7543L5.29173 14.5724L6.32358 17.752L6.32368 17.7522L7.64896 21.1566L9.17228 24.6491L9.17237 24.6494L10.7974 28.094L12.428 31.3565L13.9688 34.3061L15.3263 36.815L16.4081 38.7585L17.1236 40.0138L17.3821 40.4593L17.64 40.1355Z" fill="url(#paint2_linear_301_124)" fill-opacity="0.25"/>
<path d="M18.9881 37.5406L17.9481 38.9236L17.4461 39.57L16.845 38.5153L16.8425 38.5109L15.766 36.5771L15.7631 36.5718L14.412 34.0746L14.4086 34.0682L12.8732 31.129L11.2472 27.8755L9.6278 24.4429L8.11127 20.9659L6.7947 17.5839L5.77416 14.4391L5.14244 11.6799L4.97863 9.4399L5.1885 7.58651L5.61939 5.92927L6.24312 4.49013L7.03444 3.27216L7.96968 2.2768L9.02879 1.50259L10.1951 0.948278L11.4549 0.613884L12.7952 0.501689L14.2035 0.615518L15.6672 0.960205L17.1736 1.54107L18.6612 2.33618L20.0721 3.30592L21.3989 4.43041L22.6337 5.69079L23.7682 7.0693L24.794 8.54914L25.7021 10.1143L26.483 11.7498L27.1265 13.4409L27.6218 15.1736L27.9569 16.9342L28.1176 18.6962L27.994 20.5359L27.5163 22.5473L26.7296 24.7067L25.6875 26.9655L24.4484 29.2705L23.0786 31.5593L21.6534 33.7587L20.258 35.7843L18.9881 37.5406Z" stroke="url(#paint3_linear_301_124)" stroke-opacity="0.5"/>
</g>
<defs>
<filter id="filter0_b_301_124" x="-14.3336" y="-11.7423" width="53.0101" height="68.3983" filterUnits="userSpaceOnUse" color-interpolation-filters="sRGB">
<feFlood flood-opacity="0" result="BackgroundImageFix"/>
<feGaussianBlur in="BackgroundImageFix" stdDeviation="7.35188"/>
<feComposite in2="SourceAlpha" operator="in" result="effect1_backgroundBlur_301_124"/>
<feBlend mode="normal" in="SourceGraphic" in2="effect1_backgroundBlur_301_124" result="shape"/>
</filter>
<filter id="filter1_b_301_124" x="-33.4757" y="-32.8607" width="84.8464" height="108.792" filterUnits="userSpaceOnUse" color-interpolation-filters="sRGB">
<feFlood flood-opacity="0" result="BackgroundImageFix"/>
<feGaussianBlur in="BackgroundImageFix" stdDeviation="16.9659"/>
<feComposite in2="SourceAlpha" operator="in" result="effect1_backgroundBlur_301_124"/>
<feBlend mode="normal" in="SourceGraphic" in2="effect1_backgroundBlur_301_124" result="shape"/>
</filter>
<filter id="filter2_b_301_124" x="-10.5234" y="-15" width="54.1426" height="70.4592" filterUnits="userSpaceOnUse" color-interpolation-filters="sRGB">
<feFlood flood-opacity="0" result="BackgroundImageFix"/>
<feGaussianBlur in="BackgroundImageFix" stdDeviation="7.5"/>
<feComposite in2="SourceAlpha" operator="in" result="effect1_backgroundBlur_301_124"/>
<feBlend mode="normal" in="SourceGraphic" in2="effect1_backgroundBlur_301_124" result="shape"/>
</filter>
<linearGradient id="paint0_linear_301_124" x1="-14.1896" y1="19.2487" x2="22.7165" y2="47.6683" gradientUnits="userSpaceOnUse">
<stop stop-color="#DA9CD4" stop-opacity="0.49"/>
<stop offset="1" stop-color="#A8476A"/>
</linearGradient>
<linearGradient id="paint1_linear_301_124" x1="-3.45504" y1="7.15637" x2="26.8378" y2="27.4385" gradientUnits="userSpaceOnUse">
<stop offset="0.190175" stop-color="#FFC7D8"/>
<stop offset="0.543579" stop-color="#E7427D"/>
<stop offset="1" stop-color="#96083B"/>
</linearGradient>
<linearGradient id="paint2_linear_301_124" x1="2.71467" y1="10.2412" x2="39.5649" y2="42.6033" gradientUnits="userSpaceOnUse">
<stop stop-color="#FFD6FD"/>
<stop offset="0.550105" stop-color="#A8477B"/>
<stop offset="1" stop-color="#A8477B"/>
</linearGradient>
<linearGradient id="paint3_linear_301_124" x1="0.987234" y1="10.7348" x2="24.4156" y2="34.4879" gradientUnits="userSpaceOnUse">
<stop stop-color="#E7B8CD"/>
<stop offset="0.772826" stop-color="white" stop-opacity="0"/>
</linearGradient>
</defs>
</svg>
