<svg width="36" height="36" viewBox="0 0 36 36" fill="none" xmlns="http://www.w3.org/2000/svg">
<circle cx="18" cy="18" r="17.5" stroke="#676767"/>
<path d="M14 9C11.243 9 9 11.243 9 14V22C9 24.757 11.243 27 14 27H22C24.757 27 27 24.757 27 22V14C27 11.243 24.757 9 22 9H14ZM14 11H22C23.654 11 25 12.346 25 14V22C25 23.654 23.654 25 22 25H14C12.346 25 11 23.654 11 22V14C11 12.346 12.346 11 14 11ZM23 12C22.7348 12 22.4804 12.1054 22.2929 12.2929C22.1054 12.4804 22 12.7348 22 13C22 13.2652 22.1054 13.5196 22.2929 13.7071C22.4804 13.8946 22.7348 14 23 14C23.2652 14 23.5196 13.8946 23.7071 13.7071C23.8946 13.5196 24 13.2652 24 13C24 12.7348 23.8946 12.4804 23.7071 12.2929C23.5196 12.1054 23.2652 12 23 12ZM18 13C15.243 13 13 15.243 13 18C13 20.757 15.243 23 18 23C20.757 23 23 20.757 23 18C23 15.243 20.757 13 18 13ZM18 15C19.654 15 21 16.346 21 18C21 19.654 19.654 21 18 21C16.346 21 15 19.654 15 18C15 16.346 16.346 15 18 15Z" fill="#676767"/>
</svg>
