<svg width="36" height="36" viewBox="0 0 36 36" fill="none" xmlns="http://www.w3.org/2000/svg">
<path d="M21.946 13.4556C21.1848 13.4556 20.6213 13.6476 20.1801 13.8901C20.1094 13.6386 19.877 13.4545 19.6031 13.5095H16.2532C15.922 13.4545 15.6537 13.7228 15.7559 14.0708V26.4196C15.6537 26.7339 15.922 27.0033 16.2532 26.9809H19.6031C19.9343 27.0033 20.2026 26.7339 20.2026 26.4027L20.2014 18.9396C20.2003 18.9362 20.188 18.5792 20.4136 18.3334C20.5943 18.1381 20.9053 18.0381 21.3353 18.0381C22.0515 18.0381 22.3703 18.3311 22.4893 18.9868V26.4027C22.3714 26.7339 22.6398 27.0033 22.9709 26.9809H26.5015C26.8327 27.0033 27.101 26.7339 26.982 26.4027V18.7375C27.0999 14.8398 24.3237 13.4556 21.946 13.4556ZM25.9009 25.8583H23.5704V18.9868C23.5704 17.6609 22.7138 16.8392 21.3364 16.8392C20.5573 16.8392 19.9511 17.0682 19.5335 17.5195C18.9531 18.1482 18.998 18.9452 19.1226 19.1226V25.8583H16.8527V14.6546H19.0036V15.0318C19.0027 15.1441 19.0336 15.2545 19.0926 15.3501C19.1516 15.4457 19.2364 15.5228 19.3372 15.5724C19.4381 15.622 19.5508 15.6421 19.6626 15.6305C19.7744 15.6189 19.8806 15.5759 19.9691 15.5066L20.1262 15.3854C20.5809 15.0273 21.0513 14.6557 21.9471 14.6557C22.8744 14.6557 25.9021 14.951 25.9021 18.7387V25.8583H25.9009ZM12.3869 7.85828C11.1273 7.85828 10.1035 8.8821 10.1035 10.1417C10.1035 11.4012 11.1273 12.4251 12.3869 12.4251C13.6465 12.4251 14.6703 11.4012 14.6703 10.1417C14.6703 8.8821 13.6465 7.85828 12.3869 7.85828ZM12.3869 11.2261C11.7897 11.2261 11.3025 10.7389 11.3025 10.1417C11.3025 9.54444 11.7897 9.05723 12.3869 9.05723C12.9841 9.05723 13.4714 9.54444 13.4714 10.1417C13.4714 10.7389 12.9841 11.2261 12.3869 11.2261ZM13.99 13.4545H10.6581C10.3269 13.4545 10.0586 13.7228 10.1417 14.0708V26.4196C10.0586 26.7339 10.3269 27.0033 10.6581 26.9809H13.99C14.3212 27.0033 14.5895 26.7339 14.5895 26.4027V14.054C14.5895 13.895 14.5263 13.7425 14.4139 13.6301C14.3015 13.5177 14.149 13.4545 13.99 13.4545ZM13.5095 25.8583H11.2576V14.6546H13.5095V25.8583Z" fill="#676767"/>
<path d="M18 0C8.07384 0 0 8.07384 0 18C0 27.9262 8.07384 36 18 36C27.9262 36 36 27.9262 36 18C36 8.07384 27.9262 0 18 0ZM18 34.801C8.73619 34.801 1.19895 27.2638 1.19895 18C1.19895 8.73619 8.73619 1.19895 18 1.19895C27.2638 1.19895 34.801 8.73619 34.801 18C34.801 27.2638 27.2638 34.801 18 34.801Z" fill="#676767"/>
</svg>
