<svg width="30" height="30" viewBox="0 0 30 30" fill="none" xmlns="http://www.w3.org/2000/svg">
<path d="M20 14.2105V4.73684L15 0L10 4.73684V7.89474H0V30H30V14.2105H20ZM6.66667 26.8421H3.33333V23.6842H6.66667V26.8421ZM6.66667 20.5263H3.33333V17.3684H6.66667V20.5263ZM6.66667 14.2105H3.33333V11.0526H6.66667V14.2105ZM16.6667 26.8421H13.3333V23.6842H16.6667V26.8421ZM16.6667 20.5263H13.3333V17.3684H16.6667V20.5263ZM16.6667 14.2105H13.3333V11.0526H16.6667V14.2105ZM16.6667 7.89474H13.3333V4.73684H16.6667V7.89474ZM26.6667 26.8421H23.3333V23.6842H26.6667V26.8421ZM26.6667 20.5263H23.3333V17.3684H26.6667V20.5263Z" fill="#FF893A"/>
</svg>
