<svg width="80" height="48" viewBox="0 0 80 48" fill="none" xmlns="http://www.w3.org/2000/svg">
<g filter="url(#filter0_di_301_102)">
<path fill-rule="evenodd" clip-rule="evenodd" d="M43.8104 11.0798C42.2554 11.088 41.0014 12.3553 41.0096 13.9104C41.0179 15.4655 42.2852 16.7194 43.8403 16.7112L49.3076 16.6822L38.9634 27.5313L33.7412 22.3641C33.2051 21.8337 32.4785 21.5404 31.7244 21.5502C30.9702 21.5599 30.2515 21.8718 29.7293 22.4159L17.9192 34.7211C16.8424 35.843 16.879 37.6255 18.001 38.7023C19.1229 39.7791 20.9054 39.7425 21.9822 38.6206L31.8126 28.3781L37.0415 33.5519C37.5787 34.0835 38.3072 34.3767 39.0629 34.3657C39.8187 34.3547 40.5382 34.0404 41.0598 33.4933L53.288 20.6684L53.3154 25.8429C53.3237 27.3979 54.591 28.6519 56.146 28.6436C57.7011 28.6354 58.9551 27.3681 58.9468 25.813L58.8832 13.8157C58.875 12.2606 57.6077 11.0067 56.0526 11.0149L43.8104 11.0798Z" fill="url(#paint0_linear_301_102)"/>
</g>
<defs>
<filter id="filter0_di_301_102" x="-32.865" y="-20.6486" width="141.812" height="128.472" filterUnits="userSpaceOnUse" color-interpolation-filters="sRGB">
<feFlood flood-opacity="0" result="BackgroundImageFix"/>
<feColorMatrix in="SourceAlpha" type="matrix" values="0 0 0 0 0 0 0 0 0 0 0 0 0 0 0 0 0 0 127 0" result="hardAlpha"/>
<feOffset dy="18.3366"/>
<feGaussianBlur stdDeviation="25"/>
<feColorMatrix type="matrix" values="0 0 0 0 0.679167 0 0 0 0 0.104705 0 0 0 0 0.104705 0 0 0 0.37 0"/>
<feBlend mode="normal" in2="BackgroundImageFix" result="effect1_dropShadow_301_102"/>
<feBlend mode="normal" in="SourceGraphic" in2="effect1_dropShadow_301_102" result="shape"/>
<feColorMatrix in="SourceAlpha" type="matrix" values="0 0 0 0 0 0 0 0 0 0 0 0 0 0 0 0 0 0 127 0" result="hardAlpha"/>
<feOffset dy="-18.3366"/>
<feGaussianBlur stdDeviation="6.4178"/>
<feComposite in2="hardAlpha" operator="arithmetic" k2="-1" k3="1"/>
<feColorMatrix type="matrix" values="0 0 0 0 0 0 0 0 0 0 0 0 0 0 0 0 0 0 0.2 0"/>
<feBlend mode="normal" in2="shape" result="effect2_innerShadow_301_102"/>
</filter>
<linearGradient id="paint0_linear_301_102" x1="37.9341" y1="11.111" x2="38.084" y2="39.3905" gradientUnits="userSpaceOnUse">
<stop stop-color="#FF8100"/>
<stop offset="1" stop-color="#C6512C"/>
</linearGradient>
</defs>
</svg>
