<svg width="76" height="48" viewBox="0 0 76 48" fill="none" xmlns="http://www.w3.org/2000/svg">
<g filter="url(#filter0_b_301_146)">
<path fill-rule="evenodd" clip-rule="evenodd" d="M22.9672 7.20532L23.9209 7.35056L24.9029 7.61486L44.9341 13.8477L45.7909 14.1811L46.6133 14.6043L47.3951 15.108L48.1301 15.6833L48.8118 16.3214L49.4336 17.0137L49.9887 17.752L50.4701 18.5279L50.8704 19.3334L51.1821 20.1603L51.3972 21.0004L51.5076 21.8457L51.2119 40.708L51.212 40.7085L51.0945 41.6041L50.8633 42.4325L50.5242 43.1865L50.0833 43.8585L49.5467 44.4404L48.9209 44.9238L48.2123 45.3004L47.4284 45.5613L46.576 45.6976L45.6634 45.7005L44.6986 45.5611L22.9218 41.3413L21.8651 41.1083L20.7534 40.6539L19.6907 39.9958L18.7395 39.3115L17.8708 38.5302L17.096 37.6651L16.4262 36.7299L15.8718 35.7382L15.4431 34.7042L15.1495 33.6419L15 32.5649L15.0029 31.4873L17.0572 11.5859L17.1951 10.7218L17.4632 9.94214L17.8502 9.25127L18.3447 8.65317L18.9355 8.15152L19.6118 7.74974L20.3631 7.45111L21.1792 7.25875L22.0503 7.17578L22.9672 7.20532ZM51.2119 40.708L51.5076 21.8457L51.2097 39.7526L51.2119 40.708Z" fill="url(#paint0_linear_301_146)" fill-opacity="0.5"/>
<path d="M50.6746 40.6743L50.5668 41.4964L50.3567 42.2491L50.0517 42.9274L49.6584 43.5268L49.1824 44.0429L48.6285 44.4708L48 44.8049L47.3003 45.0377L46.5325 45.1605L45.7012 45.1632L44.7881 45.0313L23.0308 40.8152L22.0257 40.5936L20.9981 40.1736L19.9894 39.5488L19.077 38.8925L18.2517 38.1501L17.5157 37.3285L16.8804 36.4415L16.356 35.5035L15.9521 34.5291L15.6768 33.5329L15.5373 32.5285L15.5401 31.5157L17.5901 11.6559L17.7182 10.8525L17.9555 10.1625L18.2952 9.55617L18.7285 9.03201L19.2487 8.5903L19.8497 8.2333L20.5248 7.96494L21.2667 7.79008L22.0672 7.71384L22.918 7.74124L23.8103 7.87714L24.7532 8.13092L44.7567 14.3551L45.5699 14.6716L46.3442 15.07L47.0834 15.5463L47.7803 16.0918L48.4277 16.6977L49.0183 17.3553L49.5449 18.0556L50.0002 18.7897L50.3772 19.5483L50.6689 20.3222L50.8687 21.1022L50.9698 21.8762L50.6725 39.7437L50.6724 39.7437L50.6725 39.7539L50.6746 40.6743Z" stroke="url(#paint1_linear_301_146)" stroke-width="1.07446"/>
</g>
<path fill-rule="evenodd" clip-rule="evenodd" d="M21.1812 5.54592L21.0433 6.41004L19.4134 27.822L19.4104 28.8996L19.5599 29.9765L19.8535 31.0389L20.2823 32.0729L20.8366 33.0645L21.5065 33.9998L22.2813 34.8649L23.15 35.6462L24.1012 36.3305L25.1232 36.905L26.2041 37.3574L27.3318 37.6759L50.4629 42.6728L51.4277 42.8121L52.3404 42.8093L53.1926 42.6729L53.9766 42.4121L53.196 42.8533L52.4903 43.2286L51.7445 43.6505L52.4899 43.2288L52.4903 43.2286L53.196 42.8533L53.9766 42.4121L54.6851 42.0355L53.1967 42.8529L53.1964 42.8532L53.196 42.8533L52.4903 43.2286L51.7445 43.6505L50.3282 44.4284L48.9462 45.1874L48.2478 45.5591L47.4784 45.8201L46.6456 45.9621L45.757 45.9764L44.8209 45.8544L22.501 41.3558L21.4183 41.0655L20.3833 40.6463L19.4072 40.1092L18.5012 39.466L17.6762 38.7286L16.943 37.9097L16.3119 37.0218L15.7928 36.0782L15.3952 35.0918L15.1282 34.0759L15 33.0436L15.0186 32.008L16.9114 11.3121L17.0579 10.4716L17.3294 9.7102L18.7075 7.83825L19.1974 7.24577L20.2163 6.02043L21.2603 4.76481L22.3298 3.47852L21.8363 4.07539L21.4493 4.76626L21.1812 5.54592Z" fill="url(#paint2_linear_301_146)"/>
<g filter="url(#filter1_b_301_146)">
<path fill-rule="evenodd" clip-rule="evenodd" d="M26.977 2.02953L27.9306 2.17477L28.9126 2.43908L49.1327 9.05474L49.9894 9.38811L50.8118 9.81133L51.5937 10.3151L52.3287 10.8904L53.0104 11.5284L53.6322 12.2208L54.1873 12.959L54.6686 13.735L55.0689 14.5405L55.3806 15.3673L55.5957 16.2075L55.7061 17.0527L56.9999 37.8197L57 37.8203L56.8825 38.7159L56.6513 39.5443L56.3122 40.2983L55.8713 40.9702L55.3347 41.5521L54.7088 42.0355L54.0003 42.4122L53.2164 42.673L52.364 42.8094L51.4514 42.8123L50.4866 42.6729L27.3559 37.6761L26.2991 37.4431L25.1875 36.9887L24.1248 36.3306L23.1736 35.6463L22.3049 34.865L21.5301 33.9999L20.8602 33.0646L20.3059 32.073L19.8772 31.039L19.5836 29.9767L19.4341 28.8997L19.437 27.8221L21.0669 6.41013L21.2048 5.54602L21.473 4.76635L21.86 4.07549L22.3544 3.47739L22.9452 2.97573L23.6215 2.57396L24.3728 2.27532L25.1889 2.08297L26.0601 2L26.977 2.02953ZM56.9999 37.8197L55.7061 17.0527L56.9977 36.8644L56.9999 37.8197Z" fill="url(#paint3_linear_301_146)" fill-opacity="0.5"/>
<path d="M56.4605 37.8019L56.3548 38.6082L56.1447 39.3609L55.8397 40.0391L55.4464 40.6385L54.9704 41.1546L54.4165 41.5826L53.788 41.9166L53.0883 42.1494L52.3205 42.2723L51.4892 42.2749L50.5818 42.1438L27.4716 37.1515L27.4694 37.151L26.4598 36.9284L25.4322 36.5084L24.4234 35.8836L23.5111 35.2273L22.6857 34.4849L21.9498 33.6633L21.3145 32.7763L20.7901 31.8383L20.3861 30.8639L20.1109 29.8677L19.9714 28.8633L19.9742 27.8432L21.6009 6.47295L21.728 5.67668L21.9653 4.98676L22.3049 4.38039L22.7383 3.85623L23.2585 3.41452L23.8594 3.05751L24.5345 2.78916L25.2764 2.6143L26.077 2.53805L26.9277 2.56545L27.82 2.70135L28.7592 2.95412L48.9516 9.56075L49.7685 9.87861L50.5428 10.2771L51.282 10.7533L51.9789 11.2988L52.6262 11.9047L53.2168 12.5624L53.7434 13.2627L54.1987 13.9967L54.5757 14.7553L54.8675 15.5292L55.0672 16.3093L55.1711 17.1043L56.4605 37.8019Z" stroke="url(#paint4_linear_301_146)" stroke-width="1.07446"/>
</g>
<g filter="url(#filter2_b_301_146)">
<path fill-rule="evenodd" clip-rule="evenodd" d="M26.977 2.02953L27.9306 2.17477L28.9126 2.43908L49.1327 9.05474L49.9894 9.38811L50.8118 9.81133L51.5937 10.3151L52.3287 10.8904L53.0104 11.5284L53.6322 12.2208L54.1873 12.959L54.6686 13.735L55.0689 14.5405L55.3806 15.3673L55.5957 16.2075L55.7061 17.0527L56.9999 37.8197L57 37.8203L56.8825 38.7159L56.6513 39.5443L56.3122 40.2983L55.8713 40.9702L55.3347 41.5521L54.7088 42.0355L54.0003 42.4122L53.2164 42.673L52.364 42.8094L51.4514 42.8123L50.4866 42.6729L27.3559 37.6761L26.2991 37.4431L25.1875 36.9887L24.1248 36.3306L23.1736 35.6463L22.3049 34.865L21.5301 33.9999L20.8602 33.0646L20.3059 32.073L19.8772 31.039L19.5836 29.9767L19.4341 28.8997L19.437 27.8221L21.0669 6.41013L21.2048 5.54602L21.473 4.76635L21.86 4.07549L22.3544 3.47739L22.9452 2.97573L23.6215 2.57396L24.3728 2.27532L25.1889 2.08297L26.0601 2L26.977 2.02953ZM56.9999 37.8197L55.7061 17.0527L56.9977 36.8644L56.9999 37.8197Z" fill="url(#paint5_linear_301_146)" fill-opacity="0.2"/>
<path d="M56.4605 37.8019L56.3548 38.6082L56.1447 39.3609L55.8397 40.0391L55.4464 40.6385L54.9704 41.1546L54.4165 41.5826L53.788 41.9166L53.0883 42.1494L52.3205 42.2723L51.4892 42.2749L50.5818 42.1438L27.4716 37.1515L27.4694 37.151L26.4598 36.9284L25.4322 36.5084L24.4234 35.8836L23.5111 35.2273L22.6857 34.4849L21.9498 33.6633L21.3145 32.7763L20.7901 31.8383L20.3861 30.8639L20.1109 29.8677L19.9714 28.8633L19.9742 27.8432L21.6009 6.47295L21.728 5.67668L21.9653 4.98676L22.3049 4.38039L22.7383 3.85623L23.2585 3.41452L23.8594 3.05751L24.5345 2.78916L25.2764 2.6143L26.077 2.53805L26.9277 2.56545L27.82 2.70135L28.7592 2.95412L48.9516 9.56075L49.7685 9.87861L50.5428 10.2771L51.282 10.7533L51.9789 11.2988L52.6262 11.9047L53.2168 12.5624L53.7434 13.2627L54.1987 13.9967L54.5757 14.7553L54.8675 15.5292L55.0672 16.3093L55.1711 17.1043L56.4605 37.8019Z" stroke="url(#paint6_linear_301_146)" stroke-width="1.07446"/>
</g>
<g filter="url(#filter3_f_301_146)">
<path d="M47.7621 26.7466C47.8175 26.9014 47.8273 27.0563 47.7914 27.1925C47.4458 28.4806 46.7969 29.586 45.8807 30.4282C45.7862 30.5149 45.6557 30.5614 45.5123 30.5614C45.4666 30.5614 45.4177 30.5552 45.3721 30.5459C45.271 30.5242 45.1699 30.4809 45.0753 30.419L43.6863 29.521C43.5168 29.4095 43.3342 29.3321 43.1516 29.2919C43.1255 29.2857 43.0994 29.2826 43.0733 29.2764C42.8647 29.2423 42.6658 29.2578 42.493 29.3259C42.3169 29.391 42.1734 29.5055 42.0691 29.6572C41.9647 29.809 41.906 29.9978 41.8963 30.2022L41.818 31.6575C41.8082 31.8031 41.7593 31.9331 41.6648 32.0229C41.5735 32.1127 41.4463 32.1653 41.3028 32.1653C40.6148 32.1808 39.9073 32.1096 39.1965 31.9517C38.4857 31.7969 37.7683 31.5553 37.0608 31.2333C36.9141 31.1683 36.7771 31.0599 36.6728 30.9268C36.5684 30.7936 36.4967 30.6388 36.4706 30.484L36.2228 28.9606C36.1902 28.7469 36.1054 28.5302 35.9783 28.3289C35.8544 28.1276 35.6913 27.948 35.5088 27.8056C35.3229 27.6601 35.1142 27.5548 34.9088 27.499C34.8827 27.4929 34.8566 27.4867 34.8306 27.4805C34.648 27.4402 34.4719 27.4402 34.3089 27.4743L32.9883 27.7808C32.897 27.8025 32.7992 27.7994 32.6981 27.7777C32.6492 27.7684 32.6036 27.753 32.5547 27.7313C32.4079 27.6663 32.2677 27.561 32.1601 27.4309C31.1233 26.1614 30.3277 24.734 29.8255 23.2632C29.7734 23.1083 29.7636 22.9535 29.8027 22.8173C29.8418 22.6841 29.9234 22.5758 30.0407 22.5138L31.1885 21.8822C31.3482 21.7924 31.4754 21.6592 31.5602 21.492C31.645 21.3248 31.6808 21.1267 31.6678 20.913C31.6547 20.7024 31.5928 20.4826 31.4884 20.2751C31.3841 20.0677 31.2374 19.8695 31.0613 19.7116L29.8158 18.5566C29.6886 18.439 29.5908 18.2934 29.5353 18.1386C29.4799 17.9838 29.4701 17.829 29.506 17.6927C29.8484 16.4046 30.5037 15.3023 31.4167 14.457C31.5145 14.3703 31.6417 14.3239 31.7884 14.3269C31.8373 14.3269 31.8862 14.3331 31.9319 14.3424C32.0297 14.3641 32.1308 14.4075 32.2221 14.4694L33.6046 15.3642C33.7741 15.4726 33.9567 15.55 34.1393 15.5903C34.1654 15.5965 34.1915 15.5996 34.2176 15.6058C34.4262 15.6398 34.6251 15.6243 34.7979 15.5562C34.974 15.4881 35.1175 15.3766 35.2218 15.2218C35.3262 15.0701 35.3849 14.8843 35.3946 14.6768L35.4761 13.2246C35.4827 13.076 35.5381 12.946 35.6327 12.8562C35.7272 12.7633 35.8576 12.7137 36.0011 12.7137C36.6858 12.7106 37.3836 12.7818 38.1107 12.9336C38.8183 13.0946 39.5258 13.333 40.2236 13.6395C40.3703 13.7046 40.5105 13.8129 40.6148 13.9492C40.7224 14.0854 40.7942 14.2402 40.8203 14.3982L41.0681 15.9216C41.1039 16.1383 41.1855 16.3551 41.3094 16.5564C41.4365 16.7607 41.5963 16.9403 41.7854 17.0858C41.9713 17.2314 42.1767 17.3336 42.3854 17.3924C42.4114 17.3986 42.4375 17.4048 42.4636 17.411C42.6462 17.4512 42.8255 17.4512 42.9886 17.4141L44.3026 17.1106C44.3939 17.0889 44.4917 17.092 44.5928 17.1137C44.6417 17.123 44.6873 17.1385 44.7362 17.1602C44.883 17.2252 45.0232 17.3305 45.1308 17.4605C46.1676 18.7269 46.9632 20.1544 47.4654 21.6252C47.5175 21.7769 47.524 21.9317 47.4882 22.068C47.4491 22.2011 47.3643 22.3064 47.2502 22.3714L46.1057 23.0062C45.9459 23.096 45.8155 23.226 45.7307 23.3963C45.6459 23.5635 45.6133 23.7617 45.6231 23.9753C45.6362 24.1859 45.6949 24.4057 45.8025 24.6132C45.9068 24.8207 46.0535 25.0157 46.2296 25.1767L47.4784 26.3317C47.6121 26.4463 47.7099 26.5918 47.7621 26.7466ZM40.8105 24.9538C41.3191 24.5265 41.58 23.8484 41.5376 23.0681C41.4919 22.294 41.1463 21.4827 40.5757 20.817C40.0019 20.1482 39.2487 19.6775 38.4824 19.5103C37.7162 19.3431 36.9956 19.4887 36.4869 19.9191C35.975 20.3464 35.7142 21.0245 35.7566 21.8017C35.8022 22.5789 36.1478 23.3901 36.7217 24.0558C37.2923 24.7247 38.0455 25.1922 38.815 25.3625C39.5812 25.5328 40.2986 25.3842 40.8105 24.9538Z" fill="#AE447D"/>
</g>
<path d="M48.4334 21.7422L47.3698 22.4817L46.2068 23.1263L47.2671 22.3869L48.4334 21.7422Z" fill="#CB4A90"/>
<path fill-rule="evenodd" clip-rule="evenodd" d="M36.4719 12.407L36.4719 12.407L36.3891 13.8859L35.3255 14.6254L35.4083 13.1464L35.4083 13.1464C35.415 12.9947 35.4713 12.862 35.5674 12.7704C35.5873 12.7514 35.6071 12.7325 35.6303 12.7167L36.685 11.9834C36.6655 11.9972 36.6483 12.0117 36.631 12.0309C36.5349 12.1225 36.4786 12.2521 36.4719 12.407ZM34.918 15.4154L35.9816 14.676C36.071 14.6127 36.1472 14.5337 36.2135 14.4421C36.3162 14.2841 36.3792 14.0945 36.3891 13.8859L35.3255 14.6254C35.3156 14.8371 35.2559 15.0267 35.1499 15.1816C35.087 15.2732 35.0074 15.3522 34.918 15.4154Z" fill="#E790BE"/>
<path d="M41.8796 24.3778L40.816 25.1173C41.3329 24.6812 41.5979 23.9891 41.5549 23.1927C41.5085 22.4027 41.1572 21.5747 40.5774 20.8953C39.9942 20.2127 39.2289 19.7324 38.4502 19.5617C37.7412 19.4069 37.0752 19.5143 36.5715 19.8651L37.6351 19.1256C38.1388 18.7748 38.8047 18.6674 39.5138 18.8222C40.2925 18.9929 41.0578 19.4732 41.641 20.1558C42.2208 20.8353 42.5754 21.6632 42.6184 22.4533C42.6615 23.2496 42.3964 23.9417 41.8796 24.3778Z" fill="url(#paint7_linear_301_146)"/>
<path fill-rule="evenodd" clip-rule="evenodd" d="M43.7382 29.7753L44.8018 29.0358C44.6261 28.922 44.4406 28.843 44.2584 28.8019C44.2319 28.7956 44.2053 28.7893 44.1788 28.7861C43.9701 28.7514 43.768 28.7703 43.5891 28.8367C43.5195 28.862 43.4499 28.8999 43.3903 28.941L42.3267 29.6805C42.3863 29.6394 42.4526 29.6046 42.5255 29.5762C42.7011 29.5067 42.9032 29.4908 43.1152 29.5256C43.1285 29.5288 43.1418 29.5311 43.155 29.5335C43.1683 29.5359 43.1815 29.5383 43.1948 29.5414C43.3803 29.5825 43.5659 29.6615 43.7382 29.7753ZM46.2134 29.9522L45.1498 30.6917L43.7383 29.7753L44.8019 29.0358L46.2134 29.9522ZM46.9787 30.006L45.9151 30.7454C45.8257 30.8086 45.713 30.8403 45.5937 30.8403C45.5473 30.8403 45.4976 30.8339 45.4513 30.8244C45.3485 30.8023 45.2458 30.7581 45.1497 30.6949L46.2133 29.9554C46.3094 30.0186 46.4121 30.0629 46.5149 30.085C46.5646 30.0945 46.6109 30.1008 46.6573 30.1008C46.7799 30.0976 46.8893 30.066 46.9787 30.006Z" fill="#CB4A90"/>
<path fill-rule="evenodd" clip-rule="evenodd" d="M30.7101 17.8425L29.6466 18.582C29.5173 18.4619 29.4179 18.3134 29.3616 18.1554C29.3053 17.9974 29.2953 17.8394 29.3318 17.7003C29.6797 16.3857 30.3457 15.2607 31.2734 14.398C31.29 14.3822 31.3065 14.3695 31.3231 14.3569L31.3231 14.3569L32.3867 13.6174C32.3701 13.6301 32.3536 13.6427 32.337 13.6585C31.4093 14.5181 30.7433 15.6462 30.3954 16.9609C30.3589 17.0999 30.3689 17.2579 30.4252 17.4159C30.4815 17.5739 30.5809 17.7225 30.7101 17.8425ZM31.9739 19.0227L31.9759 19.0213L30.7101 17.8426L29.6466 18.5821L30.9127 19.7581L30.9089 19.7608C31.0878 19.922 31.2369 20.1242 31.3429 20.336C31.449 20.5477 31.5119 20.7721 31.5252 20.987C31.5384 21.205 31.502 21.4073 31.4158 21.5779C31.3429 21.7201 31.2435 21.837 31.1176 21.9255L32.1812 21.186C32.3071 21.0976 32.4098 20.9806 32.4794 20.8384C32.5623 20.6678 32.602 20.4655 32.5888 20.2475C32.5755 20.0326 32.5126 19.8082 32.4065 19.5965C32.2975 19.3853 32.1522 19.1867 31.9739 19.0227Z" fill="url(#paint8_linear_301_146)"/>
<path fill-rule="evenodd" clip-rule="evenodd" d="M37.2176 28.4639L37.2177 28.4639C37.1812 28.2458 37.0984 28.0246 36.9692 27.8192C36.8433 27.6169 36.6809 27.4336 36.492 27.2851C36.3032 27.1366 36.0911 27.0323 35.8824 26.9723L35.8029 26.9533C35.6173 26.9122 35.4384 26.9091 35.2727 26.947L34.2091 27.6865C34.3748 27.6517 34.5537 27.6517 34.7393 27.6928L34.8188 27.7117C35.0275 27.7686 35.2396 27.8761 35.4284 28.0246C35.614 28.17 35.7797 28.3533 35.9056 28.5587C36.0348 28.7641 36.1209 28.9853 36.1541 29.2033L36.154 29.2033L36.405 30.7532L36.4025 30.755C36.429 30.913 36.5019 31.071 36.6079 31.2069C36.7139 31.3428 36.8531 31.4534 37.0022 31.5197C37.7212 31.8484 38.4502 32.0949 39.1725 32.2529C39.8948 32.4141 40.6138 32.4867 41.3129 32.4709C41.4256 32.4709 41.5283 32.4393 41.6144 32.3793L42.6641 31.6495C42.6688 31.6464 42.6735 31.6431 42.678 31.6398L42.6641 31.6495C42.5835 31.7033 42.4829 31.7315 42.3765 31.7315C41.6774 31.7473 40.9584 31.6714 40.2361 31.5134C39.5137 31.3522 38.7848 31.1089 38.0658 30.7803C37.9134 30.717 37.7775 30.6033 37.6715 30.4674C37.5633 30.3329 37.494 30.1768 37.4669 30.0204L37.4694 30.0187L37.2176 28.4639ZM34.2091 27.6833L35.2727 26.9438L33.9308 27.2535L32.8672 27.993L34.2091 27.6833Z" fill="url(#paint9_linear_301_146)"/>
<path d="M33.9308 27.2535L32.8672 27.993C32.7744 28.0151 32.675 28.0119 32.5723 27.9898C32.5226 27.9803 32.4762 27.9645 32.4265 27.9424C32.2774 27.876 32.1349 27.7686 32.0256 27.6359C30.9719 26.3402 30.1635 24.8834 29.6532 23.3823C29.6002 23.2243 29.5903 23.0663 29.63 22.9272C29.6631 22.8103 29.7294 22.7123 29.8222 22.646L30.8858 21.9065C30.793 21.9729 30.7267 22.0708 30.6936 22.1877C30.6538 22.3268 30.6638 22.4848 30.7168 22.6428C31.2237 24.1439 32.0355 25.6007 33.0892 26.8964C33.1985 27.0323 33.3377 27.1397 33.4901 27.2029C33.5398 27.2219 33.5862 27.2377 33.6359 27.2503C33.7353 27.2756 33.838 27.2756 33.9308 27.2535Z" fill="#DD59A1"/>
<path d="M48.9437 26.2075C49 26.3655 49.0099 26.5235 48.9735 26.6625C48.6223 27.9771 47.9629 29.1053 47.0319 29.9649C46.9358 30.0534 46.8032 30.1008 46.6574 30.1008C46.6111 30.1008 46.5613 30.0945 46.515 30.085C46.4122 30.0629 46.3095 30.0186 46.2135 29.9554L44.8019 29.039C44.6297 28.9252 44.4441 28.8462 44.2586 28.8051C44.232 28.7988 44.2055 28.7956 44.179 28.7893C43.967 28.7545 43.7649 28.7703 43.5893 28.8399C43.4103 28.9062 43.2645 29.0232 43.1585 29.178C43.0525 29.3329 42.9928 29.5256 42.9829 29.7342L42.9034 31.2195C42.8934 31.368 42.8437 31.5007 42.7477 31.5924C42.6549 31.684 42.5257 31.7377 42.3799 31.7377C41.6808 31.7535 40.9618 31.6809 40.2394 31.5197C39.5171 31.3617 38.7882 31.1152 38.0692 30.7865C37.9201 30.7202 37.7809 30.6096 37.6749 30.4737C37.5689 30.3378 37.496 30.1798 37.4695 30.0218L37.2176 28.467C37.1845 28.2489 37.0984 28.0277 36.9691 27.8223C36.8432 27.6169 36.6776 27.4336 36.492 27.2882C36.3031 27.1397 36.0911 27.0323 35.8823 26.9754C35.8558 26.9691 35.8293 26.9627 35.8028 26.9564C35.6173 26.9153 35.4384 26.9153 35.2727 26.9501L33.9308 27.2629C33.838 27.2851 33.7386 27.2819 33.6359 27.2598C33.5862 27.2503 33.5398 27.2345 33.4901 27.2124C33.341 27.146 33.1985 27.0386 33.0892 26.9058C32.0355 25.6102 31.2271 24.1533 30.7168 22.6523C30.6638 22.4943 30.6538 22.3363 30.6936 22.1972C30.7334 22.0613 30.8162 21.9507 30.9355 21.8875L32.1018 21.2428C32.2641 21.1512 32.3934 21.0153 32.4795 20.8447C32.5657 20.674 32.6021 20.4718 32.5888 20.2537C32.5756 20.0388 32.5126 19.8144 32.4066 19.6027C32.3006 19.391 32.1515 19.1887 31.9726 19.0276L30.7069 17.8488C30.5776 17.7287 30.4782 17.5802 30.4219 17.4222C30.3656 17.2642 30.3556 17.1062 30.3921 16.9671C30.74 15.6525 31.406 14.5275 32.3337 13.6648C32.4331 13.5763 32.5623 13.5289 32.7114 13.532C32.7611 13.532 32.8108 13.5384 32.8572 13.5478C32.9566 13.57 33.0594 13.6142 33.1521 13.6774L34.557 14.5907C34.7293 14.7013 34.9148 14.7803 35.1004 14.8214C35.1269 14.8277 35.1534 14.8309 35.1799 14.8372C35.392 14.872 35.5941 14.8562 35.7697 14.7866C35.9486 14.7171 36.0944 14.6033 36.2004 14.4453C36.3065 14.2905 36.3661 14.1009 36.376 13.8891L36.4589 12.407C36.4655 12.2553 36.5218 12.1226 36.6179 12.031C36.714 11.9362 36.8465 11.8856 36.9923 11.8856C37.6881 11.8824 38.3972 11.9551 39.1361 12.11C39.8551 12.2743 40.5741 12.5176 41.2831 12.8305C41.4322 12.8969 41.5747 13.0075 41.6807 13.1465C41.7901 13.2856 41.863 13.4436 41.8895 13.6047L42.1413 15.1595C42.1778 15.3807 42.2606 15.6019 42.3865 15.8074C42.5157 16.0159 42.6781 16.1992 42.8703 16.3477C43.0591 16.4963 43.2679 16.6006 43.4799 16.6606C43.5064 16.6669 43.5329 16.6732 43.5594 16.6796C43.745 16.7206 43.9272 16.7206 44.0929 16.6827L45.4282 16.373C45.521 16.3509 45.6204 16.3541 45.7231 16.3762C45.7728 16.3857 45.8192 16.4015 45.8689 16.4236C46.018 16.49 46.1604 16.5974 46.2698 16.7301C47.3234 18.0226 48.1319 19.4795 48.6422 20.9805C48.6952 21.1354 48.7018 21.2934 48.6653 21.4324C48.6256 21.5683 48.5394 21.6758 48.4235 21.7421L47.2605 22.39C47.0981 22.4816 46.9656 22.6143 46.8794 22.7882C46.7933 22.9588 46.7602 23.1611 46.7701 23.3791C46.7833 23.594 46.843 23.8184 46.9523 24.0301C47.0584 24.2418 47.2075 24.4409 47.3864 24.6053L48.6554 25.784C48.7913 25.9009 48.8907 26.0494 48.9437 26.2075ZM41.8796 24.3777C42.3964 23.9416 42.6615 23.2495 42.6184 22.4532C42.572 21.6631 42.2208 20.8352 41.641 20.1557C41.0578 19.4731 40.2924 18.9928 39.5138 18.8222C38.7352 18.6515 38.0029 18.8 37.486 19.2393C36.9658 19.6754 36.7007 20.3675 36.7438 21.1607C36.7902 21.9539 37.1414 22.7818 37.7246 23.4613C38.3044 24.1439 39.0698 24.6211 39.8518 24.7949C40.6304 24.9687 41.3594 24.817 41.8796 24.3777Z" fill="url(#paint10_linear_301_146)"/>
<defs>
<filter id="filter0_b_301_146" x="-1.11694" y="-8.94116" width="68.7415" height="70.7585" filterUnits="userSpaceOnUse" color-interpolation-filters="sRGB">
<feFlood flood-opacity="0" result="BackgroundImageFix"/>
<feGaussianBlur in="BackgroundImageFix" stdDeviation="8.05847"/>
<feComposite in2="SourceAlpha" operator="in" result="effect1_backgroundBlur_301_146"/>
<feBlend mode="normal" in="SourceGraphic" in2="effect1_backgroundBlur_301_146" result="shape"/>
</filter>
<filter id="filter1_b_301_146" x="3.31714" y="-14.1169" width="69.7998" height="73.0461" filterUnits="userSpaceOnUse" color-interpolation-filters="sRGB">
<feFlood flood-opacity="0" result="BackgroundImageFix"/>
<feGaussianBlur in="BackgroundImageFix" stdDeviation="8.05847"/>
<feComposite in2="SourceAlpha" operator="in" result="effect1_backgroundBlur_301_146"/>
<feBlend mode="normal" in="SourceGraphic" in2="effect1_backgroundBlur_301_146" result="shape"/>
</filter>
<filter id="filter2_b_301_146" x="9.43408" y="-8" width="57.5659" height="60.8123" filterUnits="userSpaceOnUse" color-interpolation-filters="sRGB">
<feFlood flood-opacity="0" result="BackgroundImageFix"/>
<feGaussianBlur in="BackgroundImageFix" stdDeviation="5"/>
<feComposite in2="SourceAlpha" operator="in" result="effect1_backgroundBlur_301_146"/>
<feBlend mode="normal" in="SourceGraphic" in2="effect1_backgroundBlur_301_146" result="shape"/>
</filter>
<filter id="filter3_f_301_146" x="0.484863" y="-16.2864" width="76.3276" height="77.4539" filterUnits="userSpaceOnUse" color-interpolation-filters="sRGB">
<feFlood flood-opacity="0" result="BackgroundImageFix"/>
<feBlend mode="normal" in="SourceGraphic" in2="BackgroundImageFix" result="shape"/>
<feGaussianBlur stdDeviation="14.5" result="effect1_foregroundBlur_301_146"/>
</filter>
<linearGradient id="paint0_linear_301_146" x1="16.1938" y1="48.0135" x2="52.5141" y2="7.78504" gradientUnits="userSpaceOnUse">
<stop offset="0.168938" stop-color="#F168BA"/>
<stop offset="0.763637" stop-color="#EDC9E7" stop-opacity="0.39"/>
</linearGradient>
<linearGradient id="paint1_linear_301_146" x1="14.9324" y1="42.5447" x2="49.9869" y2="11.7107" gradientUnits="userSpaceOnUse">
<stop offset="0.180663" stop-color="white" stop-opacity="0.49"/>
<stop offset="0.533255" stop-color="white" stop-opacity="0"/>
</linearGradient>
<linearGradient id="paint2_linear_301_146" x1="5.25381" y1="9.23799" x2="49.193" y2="55.2465" gradientUnits="userSpaceOnUse">
<stop stop-color="#FFD9ED"/>
<stop offset="0.348528" stop-color="#DF5CA2"/>
<stop offset="0.563631" stop-color="#B01167"/>
<stop offset="0.76507" stop-color="#B01167"/>
<stop offset="0.957662" stop-color="#D56580"/>
</linearGradient>
<linearGradient id="paint3_linear_301_146" x1="20.6279" y1="44.3483" x2="56.9482" y2="4.11983" gradientUnits="userSpaceOnUse">
<stop offset="0.168938" stop-color="#F168BA"/>
<stop offset="0.763637" stop-color="#EDC9E7" stop-opacity="0.39"/>
</linearGradient>
<linearGradient id="paint4_linear_301_146" x1="19.3664" y1="38.8795" x2="54.421" y2="8.04555" gradientUnits="userSpaceOnUse">
<stop offset="0.180663" stop-color="white" stop-opacity="0.49"/>
<stop offset="0.533255" stop-color="white" stop-opacity="0"/>
</linearGradient>
<linearGradient id="paint5_linear_301_146" x1="20.6279" y1="44.3483" x2="56.9482" y2="4.11983" gradientUnits="userSpaceOnUse">
<stop offset="0.168938" stop-color="#F168BA"/>
<stop offset="0.763637" stop-color="#EDC9E7" stop-opacity="0.39"/>
</linearGradient>
<linearGradient id="paint6_linear_301_146" x1="19.3664" y1="38.8795" x2="54.421" y2="8.04555" gradientUnits="userSpaceOnUse">
<stop offset="0.180663" stop-color="white" stop-opacity="0.14"/>
<stop offset="0.419792" stop-color="white" stop-opacity="0"/>
</linearGradient>
<linearGradient id="paint7_linear_301_146" x1="39.5973" y1="18.7532" x2="39.5973" y2="25.1173" gradientUnits="userSpaceOnUse">
<stop stop-color="#CE4891"/>
<stop offset="1" stop-color="#FE80C8"/>
</linearGradient>
<linearGradient id="paint8_linear_301_146" x1="30.9508" y1="13.6174" x2="30.9508" y2="21.9255" gradientUnits="userSpaceOnUse">
<stop offset="0.539669" stop-color="#EA74B4"/>
<stop offset="1" stop-color="#C83F99"/>
</linearGradient>
<linearGradient id="paint9_linear_301_146" x1="37.7726" y1="26.9204" x2="37.7726" y2="32.473" gradientUnits="userSpaceOnUse">
<stop stop-color="#DD59A1"/>
<stop offset="1" stop-color="#C73E88"/>
</linearGradient>
<linearGradient id="paint10_linear_301_146" x1="39.6828" y1="11.8855" x2="41.4325" y2="31.6188" gradientUnits="userSpaceOnUse">
<stop stop-color="#FFC7E5"/>
<stop offset="1" stop-color="#E291BC"/>
</linearGradient>
</defs>
</svg>
