<svg width="128" height="53" viewBox="0 0 128 53" fill="none" xmlns="http://www.w3.org/2000/svg">
<g filter="url(#filter0_d_242_549)">
<g filter="url(#filter1_i_242_549)">
<path d="M55.4968 0C50.985 0 46.7142 2.03577 43.8731 5.54061C41.6909 8.23263 40.5 11.5928 40.5 15.0582V43.6576C40.5 44.9441 41.0524 46.178 42.0356 47.0877C43.0189 47.9974 44.3524 48.5085 45.7429 48.5085H82.4435C83.834 48.5085 85.1676 47.9974 86.1508 47.0877C87.1341 46.178 87.6864 44.9441 87.6864 43.6576V15.0582C87.6864 11.5928 86.4956 8.23263 84.3134 5.54061C81.4723 2.03577 77.2014 0 72.6897 0H55.4968Z" fill="url(#paint0_linear_242_549)"/>
</g>
<path d="M73.9184 0H55.0816C50.9368 0 47.0321 1.94499 44.5352 5.25339C42.8761 7.45172 44.4443 10.6 47.1984 10.6H81.8016C84.5557 10.6 86.1239 7.45172 84.4648 5.25339C81.9679 1.94499 78.0632 0 73.9184 0Z" fill="url(#paint1_linear_242_549)"/>
<path fill-rule="evenodd" clip-rule="evenodd" d="M53.8334 18.55C55.3062 18.55 56.5001 19.7364 56.5001 21.2C56.5001 23.3085 57.3429 25.3306 58.8432 26.8215C60.3435 28.3124 62.3783 29.15 64.5001 29.15C66.6218 29.15 68.6566 28.3124 70.1569 26.8215C71.6572 25.3306 72.5001 23.3085 72.5001 21.2C72.5001 19.7364 73.694 18.55 75.1667 18.55C76.6395 18.55 77.8334 19.7364 77.8334 21.2C77.8334 24.7141 76.4287 28.0843 73.9282 30.5692C71.4277 33.054 68.0363 34.45 64.5001 34.45C60.9639 34.45 57.5725 33.054 55.072 30.5692C52.5715 28.0843 51.1667 24.7141 51.1667 21.2C51.1667 19.7364 52.3607 18.55 53.8334 18.55Z" fill="white"/>
</g>
<defs>
<filter id="filter0_d_242_549" x="0.900002" y="0" width="127.2" height="132.2" filterUnits="userSpaceOnUse" color-interpolation-filters="sRGB">
<feFlood flood-opacity="0" result="BackgroundImageFix"/>
<feColorMatrix in="SourceAlpha" type="matrix" values="0 0 0 0 0 0 0 0 0 0 0 0 0 0 0 0 0 0 127 0" result="hardAlpha"/>
<feOffset dy="39.6"/>
<feGaussianBlur stdDeviation="19.8"/>
<feComposite in2="hardAlpha" operator="out"/>
<feColorMatrix type="matrix" values="0 0 0 0 1 0 0 0 0 0.505882 0 0 0 0 0 0 0 0 0.1 0"/>
<feBlend mode="normal" in2="BackgroundImageFix" result="effect1_dropShadow_242_549"/>
<feBlend mode="normal" in="SourceGraphic" in2="effect1_dropShadow_242_549" result="shape"/>
</filter>
<filter id="filter1_i_242_549" x="40.5" y="-39.6" width="47.1865" height="88.1085" filterUnits="userSpaceOnUse" color-interpolation-filters="sRGB">
<feFlood flood-opacity="0" result="BackgroundImageFix"/>
<feBlend mode="normal" in="SourceGraphic" in2="BackgroundImageFix" result="shape"/>
<feColorMatrix in="SourceAlpha" type="matrix" values="0 0 0 0 0 0 0 0 0 0 0 0 0 0 0 0 0 0 127 0" result="hardAlpha"/>
<feOffset dy="-39.6"/>
<feGaussianBlur stdDeviation="34.65"/>
<feComposite in2="hardAlpha" operator="arithmetic" k2="-1" k3="1"/>
<feColorMatrix type="matrix" values="0 0 0 0 0 0 0 0 0 0 0 0 0 0 0 0 0 0 0.25 0"/>
<feBlend mode="normal" in2="shape" result="effect1_innerShadow_242_549"/>
</filter>
<linearGradient id="paint0_linear_242_549" x1="45.6012" y1="-4.52529" x2="99.5014" y2="56.5564" gradientUnits="userSpaceOnUse">
<stop stop-color="#FF8100"/>
<stop offset="1" stop-color="#FF7C33"/>
</linearGradient>
<linearGradient id="paint1_linear_242_549" x1="45.6892" y1="-0.988859" x2="50.0334" y2="21.9286" gradientUnits="userSpaceOnUse">
<stop stop-color="#020513"/>
<stop offset="1" stop-color="#FF5D03"/>
</linearGradient>
</defs>
</svg>
