<svg width="81" height="55" viewBox="0 0 81 55" fill="none" xmlns="http://www.w3.org/2000/svg">
<g filter="url(#filter0_di_242_359)">
<path d="M40.5 6.16133C35.9949 6.16228 31.5911 7.48689 27.8453 9.96776C24.0995 12.4486 21.1797 15.9744 19.455 20.0995C17.7303 24.2246 17.2781 28.7639 18.1554 33.1436C19.0328 37.5234 21.2004 41.5471 24.3843 44.7062C24.9666 45.2845 25.2934 46.0684 25.2926 46.8854C25.2918 47.7024 24.9636 48.4857 24.3802 49.0629C23.7967 49.6401 23.0058 49.9639 22.1815 49.9631C21.3572 49.9624 20.5669 49.6371 19.9846 49.0588C15.9315 45.0379 13.1721 39.9163 12.0553 34.3413C10.9385 28.7664 11.5143 22.9884 13.71 17.7377C15.9057 12.4871 19.6228 7.99953 24.3912 4.84232C29.1597 1.68511 34.7655 0 40.5 0C46.2345 0 51.8403 1.68511 56.6088 4.84232C61.3772 7.99953 65.0942 12.4871 67.29 17.7377C69.4857 22.9884 70.0615 28.7664 68.9447 34.3413C67.8279 39.9163 65.0685 45.0379 61.0154 49.0588C60.7289 49.3531 60.3862 49.5878 60.0072 49.7494C59.6282 49.911 59.2205 49.9961 58.8079 49.9999C58.3954 50.0036 57.9862 49.9259 57.6043 49.7712C57.2223 49.6166 56.8753 49.388 56.5834 49.099C56.2916 48.81 56.0607 48.4663 55.9043 48.0879C55.7479 47.7095 55.6691 47.304 55.6724 46.8951C55.6758 46.4861 55.7614 46.082 55.924 45.7062C56.0867 45.3304 56.3232 44.9904 56.6198 44.7062C59.804 41.5469 61.9717 37.5228 62.8489 33.1426C63.7261 28.7625 63.2735 24.2229 61.5483 20.0976C59.8231 15.9723 56.9027 12.4466 53.1562 9.96605C49.4098 7.48549 45.0055 6.16147 40.5 6.16133Z" fill="url(#paint0_linear_242_359)"/>
</g>
<g filter="url(#filter1_di_242_359)">
<path d="M40.4999 22.5861C38.8518 22.5861 37.2712 23.235 36.1058 24.3901C34.9404 25.5452 34.2856 27.1118 34.2856 28.7454C34.2856 30.3789 34.9404 31.9455 36.1058 33.1006C37.2712 34.2557 38.8518 34.9047 40.4999 34.9047C42.1481 34.9047 43.7287 34.2557 44.8941 33.1006C46.0595 31.9455 46.7142 30.3789 46.7142 28.7454C46.7142 27.1118 46.0595 25.5452 44.8941 24.3901C43.7287 23.235 42.1481 22.5861 40.4999 22.5861Z" fill="url(#paint1_linear_242_359)"/>
</g>
<g filter="url(#filter2_di_242_359)">
<path d="M29.107 28.7451C29.1069 26.8884 29.5688 25.0604 30.4516 23.4229C31.3344 21.7854 32.611 20.3889 34.1683 19.3571C35.7256 18.3252 37.5156 17.6899 39.3797 17.5074C41.2439 17.3249 43.1247 17.6007 44.8556 18.3106C46.5865 19.0204 48.1141 20.1423 49.3032 21.5769C50.4922 23.0116 51.306 24.7147 51.6725 26.5355C52.039 28.3562 51.9469 30.2385 51.4043 32.0155C50.8617 33.7926 49.8854 35.4096 48.5618 36.7234C47.9795 37.3017 47.6528 38.0856 47.6536 38.9026C47.6543 39.7197 47.9825 40.5029 48.566 41.0801C49.1494 41.6573 49.9403 41.9811 50.7646 41.9804C51.589 41.9796 52.3792 41.6543 52.9616 41.076C55.4213 38.6343 57.0955 35.5248 57.7727 32.1403C58.4499 28.7558 58.0996 25.2482 56.7662 22.061C55.4328 18.8737 53.176 16.1498 50.2811 14.2334C47.3862 12.317 43.9831 11.2941 40.5019 11.2941C37.0207 11.2941 33.6176 12.317 30.7227 14.2334C27.8278 16.1498 25.5711 18.8737 24.2376 22.061C22.9042 25.2482 22.5539 28.7558 23.2311 32.1403C23.9083 35.5248 25.5826 38.6343 28.0423 41.076C28.3267 41.3786 28.6698 41.6213 29.0509 41.7896C29.432 41.9579 29.8435 42.0484 30.2607 42.0557C30.6779 42.063 31.0923 41.9869 31.4792 41.8321C31.8661 41.6772 32.2175 41.4466 32.5126 41.1542C32.8076 40.8617 33.0402 40.5134 33.1965 40.1299C33.3528 39.7465 33.4295 39.3357 33.4222 38.9222C33.4148 38.5087 33.3235 38.1009 33.1537 37.7231C32.9838 37.3454 32.739 37.0054 32.4337 36.7234C31.3764 35.6763 30.5382 34.4324 29.9673 33.0632C29.3964 31.6941 29.104 30.2266 29.107 28.7451Z" fill="url(#paint2_linear_242_359)"/>
</g>
<defs>
<filter id="filter0_di_242_359" x="0.0422401" y="-8.0518" width="80.9155" height="83.4581" filterUnits="userSpaceOnUse" color-interpolation-filters="sRGB">
<feFlood flood-opacity="0" result="BackgroundImageFix"/>
<feColorMatrix in="SourceAlpha" type="matrix" values="0 0 0 0 0 0 0 0 0 0 0 0 0 0 0 0 0 0 127 0" result="hardAlpha"/>
<feOffset dy="13.9486"/>
<feGaussianBlur stdDeviation="5.72888"/>
<feColorMatrix type="matrix" values="0 0 0 0 0 0 0 0 0 0 0 0 0 0 0 0 0 0 0.15 0"/>
<feBlend mode="normal" in2="BackgroundImageFix" result="effect1_dropShadow_242_359"/>
<feBlend mode="normal" in="SourceGraphic" in2="effect1_dropShadow_242_359" result="shape"/>
<feColorMatrix in="SourceAlpha" type="matrix" values="0 0 0 0 0 0 0 0 0 0 0 0 0 0 0 0 0 0 127 0" result="hardAlpha"/>
<feOffset dy="-8.0518"/>
<feGaussianBlur stdDeviation="8.0518"/>
<feComposite in2="hardAlpha" operator="arithmetic" k2="-1" k3="1"/>
<feColorMatrix type="matrix" values="0 0 0 0 0 0 0 0 0 0 0 0 0 0 0 0 0 0 0.47 0"/>
<feBlend mode="normal" in2="shape" result="effect2_innerShadow_242_359"/>
</filter>
<filter id="filter1_di_242_359" x="22.8279" y="14.5343" width="35.344" height="45.7767" filterUnits="userSpaceOnUse" color-interpolation-filters="sRGB">
<feFlood flood-opacity="0" result="BackgroundImageFix"/>
<feColorMatrix in="SourceAlpha" type="matrix" values="0 0 0 0 0 0 0 0 0 0 0 0 0 0 0 0 0 0 127 0" result="hardAlpha"/>
<feOffset dy="13.9486"/>
<feGaussianBlur stdDeviation="5.72888"/>
<feColorMatrix type="matrix" values="0 0 0 0 0 0 0 0 0 0 0 0 0 0 0 0 0 0 0.15 0"/>
<feBlend mode="normal" in2="BackgroundImageFix" result="effect1_dropShadow_242_359"/>
<feBlend mode="normal" in="SourceGraphic" in2="effect1_dropShadow_242_359" result="shape"/>
<feColorMatrix in="SourceAlpha" type="matrix" values="0 0 0 0 0 0 0 0 0 0 0 0 0 0 0 0 0 0 127 0" result="hardAlpha"/>
<feOffset dy="-8.0518"/>
<feGaussianBlur stdDeviation="8.0518"/>
<feComposite in2="hardAlpha" operator="arithmetic" k2="-1" k3="1"/>
<feColorMatrix type="matrix" values="0 0 0 0 0 0 0 0 0 0 0 0 0 0 0 0 0 0 0.47 0"/>
<feBlend mode="normal" in2="shape" result="effect2_innerShadow_242_359"/>
</filter>
<filter id="filter2_di_242_359" x="11.437" y="3.24232" width="58.1299" height="64.2202" filterUnits="userSpaceOnUse" color-interpolation-filters="sRGB">
<feFlood flood-opacity="0" result="BackgroundImageFix"/>
<feColorMatrix in="SourceAlpha" type="matrix" values="0 0 0 0 0 0 0 0 0 0 0 0 0 0 0 0 0 0 127 0" result="hardAlpha"/>
<feOffset dy="13.9486"/>
<feGaussianBlur stdDeviation="5.72888"/>
<feColorMatrix type="matrix" values="0 0 0 0 0 0 0 0 0 0 0 0 0 0 0 0 0 0 0.15 0"/>
<feBlend mode="normal" in2="BackgroundImageFix" result="effect1_dropShadow_242_359"/>
<feBlend mode="normal" in="SourceGraphic" in2="effect1_dropShadow_242_359" result="shape"/>
<feColorMatrix in="SourceAlpha" type="matrix" values="0 0 0 0 0 0 0 0 0 0 0 0 0 0 0 0 0 0 127 0" result="hardAlpha"/>
<feOffset dy="-8.0518"/>
<feGaussianBlur stdDeviation="8.0518"/>
<feComposite in2="hardAlpha" operator="arithmetic" k2="-1" k3="1"/>
<feColorMatrix type="matrix" values="0 0 0 0 0 0 0 0 0 0 0 0 0 0 0 0 0 0 0.47 0"/>
<feBlend mode="normal" in2="shape" result="effect2_innerShadow_242_359"/>
</filter>
<linearGradient id="paint0_linear_242_359" x1="17.7703" y1="-4.66443" x2="71.3168" y2="67.6975" gradientUnits="userSpaceOnUse">
<stop stop-color="#FF8100"/>
<stop offset="1" stop-color="#FF7C33"/>
</linearGradient>
<linearGradient id="paint1_linear_242_359" x1="35.6293" y1="21.4369" x2="49.2461" y2="37.4419" gradientUnits="userSpaceOnUse">
<stop stop-color="#FF8100"/>
<stop offset="1" stop-color="#FF7C33"/>
</linearGradient>
<linearGradient id="paint2_linear_242_359" x1="26.7017" y1="8.42438" x2="59.7709" y2="52.5254" gradientUnits="userSpaceOnUse">
<stop stop-color="#020513"/>
<stop offset="1" stop-color="#FF5D03"/>
</linearGradient>
</defs>
</svg>
