<svg width="36" height="36" viewBox="0 0 36 36" fill="none" xmlns="http://www.w3.org/2000/svg">
<path d="M27 9C26.298 9.52084 24.8895 10.2307 24.0615 10.4354C24.0372 10.4433 24.0174 10.4534 23.994 10.4613C23.2623 9.55909 22.2597 9 21.15 9C18.9135 9 17.1 11.2667 17.1 14.0622C17.1 14.2095 17.0901 14.4807 17.1 14.6246C14.0823 14.6246 11.7855 12.6493 10.1385 10.1249C9.9594 10.6874 9.8811 11.5761 9.8811 12.4108C9.8811 13.9868 10.8666 15.5347 12.4011 16.4943C12.1185 16.5854 11.8071 16.6506 11.4831 16.6506C10.9602 16.6506 10.4067 16.4785 9.9 15.9566C9.9 15.9757 9.9 15.9937 9.9 16.0139C9.9 18.2165 11.7702 19.7161 13.4334 20.1334C13.0959 20.382 12.4155 20.4068 12.0834 20.4068C11.8494 20.4068 11.0214 20.2729 10.8 20.2212C11.2626 22.0267 12.9312 23.0414 14.5215 23.0774C13.2777 24.2968 12.4146 24.749 9.8676 24.749H9C10.6092 26.0382 12.6585 27 14.7123 27C21.3993 27 25.2 20.6295 25.2 14.6246C25.2 14.5279 25.1982 14.3254 25.1955 14.1218C25.1955 14.1016 25.2 14.0824 25.2 14.0622C25.2 14.0318 25.1928 14.0026 25.1928 13.9722C25.1901 13.8192 25.1874 13.6763 25.1847 13.6021C25.8957 12.9609 26.5122 12.1611 27 11.2499C26.3475 11.6121 25.6473 11.8551 24.912 11.9653C25.6626 11.4029 26.7291 10.0619 27 9ZM23.4 14.6246C23.4 19.2144 20.7387 24.0729 15.7806 24.6849C16.452 24.0898 17.1 23.245 17.1 23.245C17.1 23.245 14.4 20.2504 14.1975 16.3379C15.129 16.6934 16.0992 16.8745 17.1 16.8745H18.9V14.0622C18.9 14.0611 18.9 14.0611 18.9 14.0611C18.9018 12.5087 19.908 11.251 21.15 11.251C22.3929 11.251 23.4 12.5098 23.4 14.0633C23.4 14.0633 23.4 14.5358 23.4 14.6246Z" fill="#676767"/>
<circle cx="18" cy="18" r="17.5" stroke="#676767"/>
</svg>
