<svg width="36" height="36" viewBox="0 0 36 36" fill="none" xmlns="http://www.w3.org/2000/svg">
<circle cx="18" cy="18" r="17.5" stroke="#676767"/>
<path d="M18.0114 9C13.0555 9 9.02114 13.0305 9.01934 17.9859C9.01844 19.5699 9.43336 21.1163 10.22 22.4789L9 27L13.7096 25.8873C15.0229 26.6037 16.5012 26.9798 18.0062 26.9807H18.0097C22.9647 26.9807 26.9973 22.9492 27 17.9947C27.0018 15.5926 26.0676 13.3342 24.3701 11.635C22.6725 9.93666 20.4165 9.0009 18.0114 9ZM18.0097 10.8C19.9323 10.8009 21.739 11.5504 23.0973 12.9076C24.4555 14.2666 25.2016 16.0724 25.1998 17.993C25.198 21.9566 21.9737 25.1807 18.0079 25.1807C16.8081 25.1798 15.6196 24.8785 14.5728 24.307L13.9663 23.9766L13.2965 24.1348L11.5245 24.5531L11.9569 22.9465L12.1521 22.2258L11.7794 21.5789C11.1511 20.4917 10.8186 19.2486 10.8195 17.9859C10.8213 14.0241 14.0466 10.8 18.0097 10.8ZM14.8295 13.8375C14.6792 13.8375 14.4361 13.8938 14.23 14.1188C14.0239 14.3429 13.4424 14.8856 13.4424 15.9908C13.4424 17.096 14.2476 18.1643 14.3601 18.3146C14.4717 18.464 15.9142 20.8037 18.1978 21.7037C20.0952 22.4516 20.4805 22.304 20.8928 22.2662C21.305 22.2293 22.2227 21.7239 22.4099 21.1992C22.5971 20.6745 22.5976 20.2232 22.5417 20.1305C22.4859 20.0369 22.3361 19.9811 22.111 19.8686C21.8869 19.7561 20.7824 19.2138 20.5763 19.1391C20.3702 19.0644 20.2194 19.0266 20.07 19.2516C19.9206 19.4766 19.4912 19.9811 19.3598 20.1305C19.2284 20.2808 19.0979 20.301 18.8728 20.1885C18.6478 20.0751 17.9243 19.8373 17.0656 19.0723C16.3978 18.4774 15.9471 17.7434 15.8157 17.5184C15.6852 17.2943 15.8034 17.1712 15.9159 17.0596C16.0167 16.9588 16.1392 16.7972 16.2517 16.6658C16.3633 16.5344 16.402 16.4408 16.4767 16.2914C16.5514 16.142 16.5132 16.0102 16.4574 15.8977C16.4016 15.7852 15.9645 14.6758 15.7647 14.2312C15.5964 13.8577 15.4186 13.8491 15.2584 13.8428C15.1279 13.8374 14.9789 13.8375 14.8295 13.8375Z" fill="#676767"/>
</svg>
